<?xml version="1.0" encoding="utf-8"?>
<!-- Generator: Adobe Illustrator 27.5.0, SVG Export Plug-In . SVG Version: 6.00 Build 0)  -->
<svg version="1.1" xmlns="http://www.w3.org/2000/svg" xmlns:xlink="http://www.w3.org/1999/xlink" x="0px" y="0px"
	 viewBox="0 0 500 500" style="enable-background:new 0 0 500 500;" xml:space="preserve">
<g id="BACKGROUND">
	<rect x="0.001" style="fill-rule:evenodd;clip-rule:evenodd;fill:#FFFFFF;" width="499.999" height="500"/>
</g>
<g id="OBJECTS">
	<circle style="fill:#DCE5DE;" cx="250" cy="250" r="158.25"/>
	<path d="M467.237,201.349c0,0-3.422-0.978-5.622,0l1.222-0.978c0,0-1.956-0.733-4.645,1.223l0.978-2.444
		c0,0-4.645-0.245-10.022,2.933c-5.378,3.178-7.578,5.866-7.578,5.866s1.712-3.178,2.934-3.911c0,0-5.133,2.2-7.089,5.133
		c-1.956,2.934-4.399,5.623-6.844,6.844l0.733-1.711c0,0-5.133,0.978-7.089,3.667c-1.956,2.689-3.178,3.422-5.622,5.378
		c-2.444,1.955-4.156,2.2-7.333,2.933l1.956-1.711c0,0-4.889,0.733-7.089,2.2s-3.421-3.667-9.044-5.133
		c-5.622-1.466-10.266-3.177-10.266-3.177l5.377,0.244c0,0-3.421-2.933-9.044-3.667c-5.622-0.733-7.577-3.911-11.977-4.644
		s-7.578-3.178-12.222-2.934c-4.644,0.245-7.333,0.733-7.333,0.733l4.889-1.956c0,0-5.866-1.467-10.755-1.222
		c-4.889,0.245-5.377-0.733-10.999,0.489c-5.623,1.223-4.156,0.977-7.333,0.733c-3.178-0.244-7.822-0.488-10.511-0.244
		c-2.689,0.244-7.089,0-7.089,0l3.667-1.223c0,0-3.422-0.489-6.111-0.733c-2.689-0.244-4.645-2.2-4.645-2.2l3.667-0.733
		c0,0-0.244-1.955-3.422-2.689c-3.178-0.733-3.421-1.467-5.866-3.667c-2.445-2.2-2.445-3.178-2.445-3.178l3.666,1.467
		c0,0-1.71-3.422-4.888-4.889c-3.178-1.466-4.889-4.155-7.089-5.622c-2.2-1.466-5.378-4.889-6.355-4.889
		c-0.978,0-9.289-4.889-12.466-7.333c-3.177-2.444-10.267-4.888-13.933-4.644c-3.666,0.245-12.709,1.712-17.354,3.667
		c-4.645,1.955-9.044,3.911-11.489,5.133c-2.444,1.222-5.622,1.467-8.066,5.133c-2.444,3.667-4.156,8.066-6.355,9.533
		c-2.2,1.467-4.399,0.733-4.889,4.155c-0.489,3.422,0.245,6.111,0.245,8.311c0,2.2-1.467,5.133-1.467,5.133
		s-1.222,2.688-4.644,4.644c-3.422,1.956-4.888,1.955-8.8,4.4c-3.912,2.444-6.111,6.6-6.111,6.6s-2.199,1.467-1.955,3.667
		c0.244,2.2,1.466,3.422,1.955,5.623c0.489,2.2,1.956,5.377,2.689,5.622c0.733,0.245,1.467,4.156,4.4,4.889
		c2.933,0.733,8.555,0.245,11.977,1.223c3.422,0.977,9.045,0.977,9.045,0.977s-2.444,3.911-5.133,4.4
		c-2.689,0.489-5.133,2.2-6.355,4.4c-1.223,2.2,0.978,4.645,2.2,4.645c1.223,0,2.689-0.245,2.689-0.245s1.466,3.911,4.889,5.866
		c3.422,1.956,7.089,1.222,9.533,0.733c2.444-0.489,4.644-2.444,7.578-2.933c2.933-0.489,7.578-1.467,7.578-1.467
		s1.222,3.178,3.911,3.911c2.689,0.733,8.311,0.245,8.311,0.245s-3.912,3.911-3.667,7.088c0.245,3.178-0.978,4.644-0.978,6.844
		c0,2.2,0.245,6.844,0.489,9.778c0.244,2.933,0.977,8.311,1.71,10.755c0.733,2.444,2.445,8.555,1.956,11.488
		c-0.489,2.934-3.422,13.444-4.156,19.066c-0.733,5.622-2.689,13.689-3.422,16.622c-0.733,2.933-1.955,8.067-3.422,11.489
		c-1.466,3.421-3.178,4.888-3.422,10.511c-0.244,5.622-0.489,8.555-1.956,11.732c-1.467,3.178-1.956,6.846-4.4,8.556
		c-2.444,1.711-4.645,2.2-7.333,2.444c-2.689,0.244-5.622,0.244-6.844,2.444c-1.222,2.2-1.466,3.91-3.177,5.866
		c-1.712,1.956-1.223,3.423-0.245,4.645c0.979,1.222,6.111,0.978,6.111,0.978s1.955,1.955,4.889,1.711c2.933-0.244,7.578,0,10.022,0
		c2.444,0,8.556-0.488,10.999-0.978c2.444-0.489,5.622-1.222,6.6-2.933c0.977-1.711,1.467-4.156,2.689-6.356
		c1.222-2.199,1.467-2.933,2.2-5.377c0.733-2.444,2.444-5.867,3.911-7.822c1.466-1.955,1.711-3.912,2.689-6.6
		c0,0,1.222,1.223,0.733,3.178c0,0,0.978-0.732,2.2-4.399c1.222-3.667,1.467-5.134,2.2-7.333c0.733-2.2,2.688-4.4,2.688-4.4
		s0.489,2.443,0,3.422c0,0,1.956-1.466,2.689-4.154c0.733-2.69,2.2-6.112,2.933-9.779c0.733-3.667,2.2-7.821,2.933-10.021
		c0.733-2.2,2.933-6.6,3.667-7.822c0.733-1.222,1.956-4.644,1.956-4.644s3.421,2.689,5.622,5.133c2.2,2.444,6.111,2.199,7.089,2.688
		l-0.489-1.711c0,0,2.445,1.222,4.889,2.444c2.444,1.222,3.177,0.734,3.177,4.645c0,3.911-0.488,12.954-1.711,17.844
		c-1.222,4.889-2.201,5.622-2.689,9.289c-0.488,3.666-0.244,12.709-0.244,17.354c0,4.646-1.222,6.112-2.2,7.578
		c-0.978,1.467-3.422,0.488-4.889,3.178c-1.467,2.689-0.978,4.155-0.733,6.844c0.245,2.689,2.69,3.912,3.912,4.156
		c1.222,0.244,3.911,0.244,3.911,0.244s1.223,0.734,4.4,0.978c3.177,0.244,4.889-0.489,5.867-0.489c0.978,0,5.377,0.488,8.066,0.978
		c2.689,0.489,6.844-0.244,7.577-0.244s3.422-1.467,3.422-1.467s3.667,1.222,4.156-1.223c0.488-2.444,1.222-4.889-0.733-7.821
		c-1.956-2.934-3.422-5.622-3.422-7.089c0,0,3.666,0.489,6.844,0.733c3.178,0.244,6.111,0.733,7.578,0.488
		c1.467-0.244,6.111-0.488,6.111-0.488s5.622-0.244,7.578-1.467c1.956-1.223,1.956-3.911,4.645-6.11
		c2.689-2.201,5.622-4.4,8.311-8.557c2.689-4.155,3.422-5.866,6.111-9.533c2.689-3.666,3.423-8.064,6.111-11.243
		c2.689-3.178,5.133-7.578,3.911-10.022c-1.222-2.444-1.956-5.132-4.4-8.311c-2.444-3.178-2.444-4.4-2.444-5.866l2.2,1.71
		c0,0,0.245-2.201-0.733-4.155c-0.978-1.955-1.222-3.911-2.2-5.377c-0.978-1.467-0.489-2.69-0.489-2.69s5.377-1.466,7.578-2.933
		c2.2-1.466,6.355-6.355,6.355-6.355s0.977,10.511,2.933,15.4c1.956,4.889,3.667,7.089,3.667,7.089l0.244-2.689
		c0,0,0.49,2.934,2.445,7.089c1.955,4.155,2.688,7.822,4.155,10.266c1.467,2.444,1.222,6.112,1.467,8.066
		c0.245,1.955,1.466,7.089,1.956,8.312c0.489,1.222,0.732,8.065,0.244,11.243c-0.488,3.179-0.488,7.09-1.955,8.557
		c-1.466,1.466-1.466,1.711-2.933,2.443c-1.467,0.733-4.4,0.734-5.133,3.912c-0.733,3.177-1.222,6.843,0.733,7.821
		c1.955,0.979,5.133,0.733,5.133,0.733s0.978,0.489,3.667,0.978c2.689,0.489,6.844-0.488,6.844-0.488s3.667,1.222,6.6,1.466
		c2.933,0.244,4.889-0.732,4.889-0.732s5.133,1.222,6.844,0c1.711-1.223,2.2-2.689,1.467-4.645c-0.733-1.956-0.733-4.4-2.2-5.622
		c-1.466-1.223-1.466-1.223-1.466-1.223s0.733-5.866,1.466-9.288c0.733-3.422-0.244-9.778,0-13.689
		c0.244-3.91,1.223-6.11,1.223-9.043c0-2.934,0-5.378-1.223-8.067c-1.222-2.689-1.956-11.488-1.956-14.666
		c0-3.178,0-6.111-0.733-10.267l1.467,1.955c0,0,1.222-1.956,0.488-5.133c-0.733-3.177-0.733-7.333-1.711-9.777
		c-0.978-2.444-0.979-5.133-0.489-7.333c0.489-2.2,1.956-7.822,2.689-13.2l0.978,2.444c0,0,1.711-4.645,1.223-8.8
		c-0.489-4.155-0.245-10.267-1.467-13.688c-1.223-3.422-1.223-5.378-1.467-8.311c-0.244-2.933,0.001-6.6-0.978-8.555
		c-0.978-1.956-1.956-4.889-1.956-4.889l-0.489-3.178c0,0,3.667-0.978,6.356-3.666c2.689-2.689,5.378-6.844,5.378-6.844
		l-1.955,0.244c0,0,2.444-1.711,6.11-4.155c3.667-2.444,6.844-5.133,9.044-7.578l-3.667,0.245c0,0,5.623-4.155,9.289-5.867
		c3.666-1.711,5.867-4.888,6.6-5.866c0.733-0.978,3.667-6.6,3.667-6.6l-2.2,0.245C464.548,207.704,467.726,203.793,467.237,201.349z
		 M348.868,362.982c-1.65,2.384-3.117,5.867-5.133,7.884c-2.017,2.017-4.4,5.866-5.683,7.7c-1.283,1.832-4.216,3.116-5.866,3.299
		c-1.65,0.184-2.017,0.917-3.117,2.018c-1.1,1.1-3.117,5.316-3.117,5.316l0.183-9.35c0,0,0-4.217,0.184-6.417
		c0.183-2.2,0.733-5.866,1.65-7.7c0.917-1.833,0.917-4.217,1.283-6.416c0.367-2.2,1.833-4.767,1.467-6.966
		c-0.367-2.2,1.1-5.5,1.283-8.983c0.184-3.483,2.017-6.233,2.017-6.233c0.917-2.383,6.05-3.85,6.05-3.85s0.184,1.1,0.184,2.75
		s0.917,4.583,2.017,7.15c1.1,2.566,2.2,3.3,2.2,3.3l0.55-1.65c0,0,1.1,1.833,2.934,3.85c1.833,2.017,2.2,5.133,2.75,8.066
		C351.251,359.684,350.518,360.6,348.868,362.982z"/>
	<path d="M34.594,392.144c0,0-1.514,3.63-0.479,6.894c1.034,3.262,2.807,5.169,5.97,6.895c3.162,1.727,4.418,5.228,5.297,6.411
		c0.878,1.184,5.906,2.287,5.906,2.287s-0.887-0.953-1.996-2.145c0,0,2.506,0.782,8.446,2.147c5.939,1.368,8.265,0.761,9.219-0.127
		c0.954-0.887-0.269-5.307-4.335-7.528c0,0,0.954-0.887,2.079-0.155c0,0-1.946-3.524-5.61-4.118c-3.664-0.594-4.075-1.99-5.618-3.89
		c0,0-1.059-2.572-0.335-3.467c0,0,0.28-1.372,3.124-3.573c2.844-2.2,2.803-1.05,6.056-1.854c3.254-0.804,7.215-2.042,7.215-2.042
		s-1.431,1.329-2.606,1.978c0,0,2.004,1.915,6.032-1.164c3.132-2.395,5.92-2.99,8.319-3.523c0.007,0.818-0.088,1.523-0.37,1.917
		c0,0,1.228-0.614,1.688-1.535c0,0,0.921,1.382,0.614,3.069s-0.153,3.069-0.153,3.069s2.455-2.302,2.455-3.377
		c0,0,0.767,2.764,0.767,4.145c0,0,1.074-0.46,2.302,0.153c1.228,0.614,1.688,2.303,1.841,4.145c0.154,1.842-0.153,6.445,0,7.366
		c0.154,0.921-0.46,2.609,1.688,3.376c2.149,0.768,3.683,2.456,6.599,1.995c2.915-0.46,4.451-0.46,6.139-0.307
		c1.688,0.153,1.995,0,3.99-0.613c1.995-0.615,1.535-1.534,1.995-2.609c0,0,2.302-0.921,3.99-0.153
		c1.688,0.768,2.916,0.613,4.297,1.075c1.381,0.46,3.684,0,3.684,0s1.228,2.608,2.302,3.222c1.074,0.614,2.456,0.153,3.53,0.614
		c1.075,0.46,3.07,0.613,4.758,0.46c1.688-0.153,2.762-0.153,4.45,0.307c1.688,0.461,2.763,0.308,4.604,0.308
		c1.841,0,1.841-1.228,3.069-1.382c1.228-0.153,2.149-0.307,2.762-1.381c0.614-1.075,0.308-3.377,0.308-3.377
		s2.762,0.154,4.143,0.308c1.381,0.153,2.609,1.228,3.683,0.614c1.075-0.614,2.149-0.461,3.53-0.614
		c1.381-0.153,2.916-0.308,3.99-1.074c1.075-0.767,2.302-3.684,2.302-4.758c0-1.074-0.153-1.995-0.153-1.995s1.842-0.46,4.144-1.381
		c2.302-0.921,3.53-2.456,3.99-4.298c0.46-1.842,1.227-4.758,1.381-6.445c0.153-1.689,0-6.753,0-6.753s2.916-2.917,4.758-4.297
		c1.842-1.382,4.297-6.14,4.911-7.674c0.613-1.535,0-3.99,0-3.99s0.613,0.46,0.921,1.535c0,0,0.46-1.23,0.307-2.916
		c-0.153-1.689-0.307-5.219-0.614-6.293c0,0,1.074,0.92,1.689,1.688c0,0-0.46-2.455-1.228-4.143
		c-0.768-1.688-0.614-5.525-0.921-6.14c0,0,1.228,1.228,1.535,2.148c0,0,0-2.301-0.613-3.529c-0.614-1.228-0.307-5.985-1.381-8.288
		c0,0,1.228,1.842,1.995,2.456c0,0,0.154-1.534-0.921-3.377c-1.074-1.842-2.148-3.529-2.301-5.525
		c-0.154-1.996-0.614-4.451-1.381-6.446c-0.768-1.995-2.916-3.223-3.684-5.065c-0.767-1.841-0.921-4.143-1.381-5.678
		c0,0,1.227,2.148,1.842,2.609c0,0-0.614-2.609-1.688-4.144s-1.688-2.762-2.148-3.99c-0.461-1.227-0.768-2.61-1.535-4.297
		c-0.768-1.688-2.148-3.837-2.148-3.837s1.074,1.228,1.995,1.842c0,0-0.768-1.842-1.535-2.916c-0.768-1.074-1.535-2.149-1.842-3.377
		c-0.307-1.228-1.381-3.07-1.381-3.07s0.921,0.614,1.842,0.768c0,0-1.075-0.614-1.995-2.149c-0.921-1.535-0.767-2.148-1.381-3.53
		c0,0,1.074,0.768,1.688,1.074c0,0-1.228-1.534-2.302-3.529c-1.074-1.996-1.074-3.07-1.841-4.758
		c-0.768-1.689-1.688-2.917-2.763-4.605c-1.074-1.688-0.614-3.836-1.995-4.757c-1.381-0.921-2.302-3.53-2.762-5.064
		c-0.46-1.535-0.461-4.144-0.307-5.372c0.153-1.228-0.46-3.683-0.46-3.683l0.307-1.841c0,0,0.768,1.075,1.381,1.229
		c0,0-0.613-1.075-1.227-2.456c0,0,1.381,0.767,2.302,1.228c0,0-0.921-1.228-1.381-2.302c0,0,0.614-0.153,1.227,0.153
		c0,0-0.571-0.571-0.826-1.122c0.281,0.074,0.563,0.145,0.837,0.243c0.584,0.188,1.149,0.418,1.692,0.648
		c0.538,0.243,1.058,0.481,1.544,0.725c0.484,0.244,0.942,0.48,1.36,0.705c0.835,0.452,1.53,0.838,2.007,1.12
		c0.479,0.283,0.753,0.443,0.753,0.443s-0.251-0.196-0.705-0.518c-0.457-0.317-1.109-0.774-1.924-1.274
		c-0.406-0.251-0.852-0.516-1.332-0.78c-0.48-0.266-0.994-0.533-1.536-0.79c-0.547-0.246-1.114-0.505-1.719-0.701
		c-0.202-0.075-0.412-0.135-0.622-0.193l1.392-0.348l-0.77-0.462c0.143,0.019,0.288,0.036,0.434,0.053
		c0.537,0.058,1.092,0.113,1.658,0.143c0.456,0.026,0.918,0.044,1.381,0.057c0.324,0.153,0.645,0.311,0.96,0.479
		c0.286,0.151,0.569,0.308,0.84,0.479c0.138,0.083,0.269,0.171,0.397,0.26c0.128,0.086,0.263,0.193,0.386,0.283
		c0.527,0.41,1.093,0.733,1.652,1.013c0.558,0.284,1.12,0.506,1.653,0.704c0.534,0.2,1.051,0.352,1.527,0.489
		c0.956,0.266,1.767,0.421,2.336,0.517c0.284,0.05,0.508,0.082,0.662,0.101c0.153,0.019,0.235,0.028,0.235,0.028
		s-0.317-0.087-0.872-0.239c-0.552-0.159-1.338-0.397-2.264-0.716c-0.464-0.157-0.96-0.347-1.479-0.554
		c-0.518-0.21-1.056-0.452-1.595-0.728c-0.539-0.277-1.076-0.598-1.579-0.974c-0.138-0.098-0.258-0.193-0.4-0.289
		c-0.141-0.096-0.282-0.188-0.424-0.274c-0.284-0.176-0.576-0.337-0.872-0.49c-0.056-0.028-0.112-0.053-0.168-0.081
		c0.355-0.002,0.708-0.007,1.06-0.021c0.572-0.028,1.101-0.048,1.631-0.018c0.525,0.042,1.036,0.092,1.514,0.18
		c0.48,0.079,0.93,0.183,1.345,0.281c0.413,0.106,0.792,0.206,1.126,0.307c0.333,0.1,0.621,0.194,0.857,0.277
		c0.473,0.164,0.74,0.269,0.74,0.269s-0.064-0.034-0.183-0.096c-0.12-0.061-0.294-0.154-0.524-0.254
		c-0.229-0.105-0.509-0.226-0.835-0.356c-0.325-0.131-0.698-0.268-1.109-0.4c-0.414-0.126-0.864-0.261-1.352-0.362
		c-0.484-0.113-1.006-0.193-1.549-0.247c-0.542-0.044-1.123-0.047-1.676-0.022c-0.559,0.014-1.129,0.016-1.698,0.004
		c-0.115-0.001-0.23-0.004-0.345-0.006c-0.812-0.36-1.624-0.68-2.402-0.975c-0.361-0.137-0.715-0.271-1.059-0.401
		c-0.049-0.087-0.097-0.179-0.143-0.275c0.42,0.059,0.846,0.123,1.278,0.173l0.278,0.036c0.097,0.012,0.195,0.025,0.293,0.031
		c0.196,0.018,0.393,0.024,0.589,0.026c0.393,0.002,0.785-0.025,1.171-0.074c0.774-0.098,1.526-0.29,2.248-0.518
		c0.722-0.227,1.412-0.503,2.063-0.799c0.651-0.297,1.27-0.605,1.84-0.924c0.571-0.318,1.102-0.633,1.582-0.938
		c0.961-0.611,1.729-1.165,2.255-1.567c0.525-0.405,0.813-0.65,0.813-0.65s-0.313,0.212-0.877,0.558
		c-0.561,0.346-1.369,0.833-2.36,1.371c-0.495,0.269-1.036,0.553-1.617,0.832c-0.582,0.277-1.197,0.564-1.847,0.825
		c-0.65,0.259-1.329,0.504-2.03,0.709c-0.7,0.204-1.424,0.36-2.149,0.444c-0.363,0.042-0.726,0.063-1.085,0.059
		c-0.18-0.003-0.359-0.01-0.535-0.029c-0.089-0.007-0.176-0.019-0.264-0.03l-0.276-0.039c-0.256-0.038-0.509-0.069-0.763-0.103
		c-0.077-0.318-0.182-0.729-0.309-1.18c0.044,0.003,0.086,0.006,0.129,0.008c0.17,0.001,0.343,0.001,0.517,0.002
		c0.712-0.02,1.431-0.075,2.165-0.219c0.73-0.142,1.463-0.367,2.149-0.7c0.685-0.334,1.317-0.773,1.874-1.268
		c0.56-0.494,1.039-1.046,1.476-1.606c0.41-0.557,0.806-1.096,1.182-1.607c0.187-0.253,0.397-0.479,0.583-0.71
		c0.189-0.23,0.372-0.453,0.564-0.649c0.189-0.203,0.368-0.397,0.54-0.581c0.179-0.177,0.349-0.345,0.509-0.502
		c0.157-0.161,0.315-0.3,0.46-0.429c0.146-0.128,0.276-0.252,0.402-0.355c0.25-0.205,0.443-0.371,0.583-0.473
		c0.136-0.108,0.213-0.16,0.213-0.16s-0.081,0.045-0.227,0.14c-0.148,0.091-0.36,0.233-0.624,0.424
		c-0.133,0.093-0.271,0.208-0.428,0.327c-0.155,0.119-0.323,0.249-0.493,0.398c-0.172,0.148-0.355,0.305-0.549,0.471
		c-0.183,0.177-0.375,0.363-0.576,0.558c-0.206,0.189-0.402,0.405-0.604,0.628c-0.201,0.225-0.419,0.448-0.62,0.699
		c-0.2,0.251-0.405,0.509-0.615,0.773l-0.158,0.2l-0.153,0.198c-0.104,0.135-0.208,0.271-0.314,0.409
		c-0.426,0.527-0.911,1.046-1.445,1.515c-0.535,0.469-1.134,0.876-1.782,1.188c-0.644,0.317-1.335,0.537-2.034,0.677
		c-0.697,0.137-1.41,0.219-2.083,0.25c-0.173,0.003-0.345,0.006-0.515,0.009c-0.081-0.003-0.16-0.006-0.24-0.009
		c-0.149-0.501-0.32-1.021-0.506-1.487c-0.614-1.534,0.46-4.911,0.307-6.906c-0.153-1.995-0.767-1.535-1.075-2.456
		c0,0,1.075,0.153,1.689,0.153c0,0-0.614-0.92-1.381-1.688c-0.767-0.768-0.767-0.768-0.767-0.768s1.228,0.308,2.148,0.308
		c0,0-1.227-0.614-1.841-1.689c-0.614-1.074-0.921-1.074-1.075-2.455c-0.153-1.381-0.307-1.381,0.153-2.609
		c0.461-1.227,1.535-4.451,1.688-5.985c0.154-1.535,0.46-6.216,0.92-9.669c0.46-3.454,0.921-6.906,0.23-10.36
		c-0.691-3.453-2.071-7.827-4.144-8.057c-2.072-0.231-5.064,1.15-6.906,4.144c-1.842,2.993-7.828,8.057-8.518,9.207
		c-0.69,1.152-5.065,4.374-5.065,4.374s-2.993-1.611-5.294-1.382c-2.302,0.23-6.446-0.92-8.287-0.92
		c-1.842,0-4.604,0.691-7.137,1.15c-2.532,0.46-4.144,0.921-5.295-0.23c-1.151-1.15-2.071-4.143-3.683-6.676
		c-1.611-2.531-4.604-5.524-5.985-7.827c-1.381-2.301-3.684-3.913-6.446-4.374c-2.763-0.46-3.914,2.993-4.604,6.677
		c-0.691,3.683-0.921,11.049-0.921,13.581c0,2.532,0.23,7.136,0.691,10.359c0.46,3.223,0.057,4.835,0.057,5.928
		c0,1.094,0.173,1.669-0.345,2.187c-0.517,0.518-2.589,1.037-2.589,1.037l0.863,0.23c0,0-0.461,0.402-1.439,0.575
		c0,0,0.691,0.287,1.324,0.46l-1.726,0.863c0,0,1.497,0.231,1.956,0.518c0,0-1.151,0.691-1.899,0.806c0,0,0.979-0.058,1.496,0.058
		c0,0-1.208,0.461-1.957,0.806c0,0,1.611,0.403,1.726,0.806c0,0-0.518,0.633-1.381,0.979c-0.863,0.345-1.554,1.324-1.554,1.324
		s0.288-0.058,0.863-0.23c0.576-0.173,1.266,0.115,1.439,0.172c0.172,0.058-0.23,1.094-1.094,1.785
		c-0.863,0.691-1.266,1.727-1.266,1.727s0.403-0.115,0.863-0.23c0,0-0.403,0.518-0.806,0.863c0,0,0.806-0.115,1.611-0.058
		c0,0-0.691,0.23-1.209,1.036c-0.22,0.342-0.397,0.755-0.53,1.119c-0.179-0.096-0.358-0.194-0.537-0.292
		c-0.362-0.214-0.709-0.427-1.06-0.677c-0.69-0.482-1.358-1.007-2.021-1.522c-0.661-0.517-1.32-1.019-1.975-1.484
		c-0.649-0.47-1.3-0.895-1.925-1.284c-0.631-0.379-1.237-0.721-1.81-1.01c-0.288-0.14-0.565-0.274-0.828-0.401
		c-0.268-0.118-0.521-0.229-0.76-0.334c-0.479-0.205-0.906-0.357-1.253-0.497c-0.709-0.236-1.113-0.37-1.113-0.37
		s0.395,0.159,1.087,0.438c0.339,0.154,0.757,0.326,1.224,0.552c0.231,0.114,0.479,0.236,0.739,0.365
		c0.255,0.138,0.524,0.284,0.803,0.436c0.279,0.155,0.561,0.328,0.858,0.499c0.295,0.176,0.59,0.372,0.9,0.565
		c0.604,0.407,1.239,0.841,1.872,1.323c0.638,0.476,1.278,0.993,1.933,1.517c0.655,0.522,1.319,1.062,2.02,1.566
		c0.34,0.25,0.718,0.485,1.085,0.705c0.205,0.116,0.41,0.23,0.615,0.342c-0.085,0.273-0.13,0.46-0.13,0.46s0.187-0.14,0.422-0.307
		c0.073,0.039,0.145,0.079,0.218,0.115c0.153,0.08,0.307,0.156,0.461,0.231c-0.434,0.322-0.882,0.682-1.164,0.978
		c-0.058-0.016-0.116-0.032-0.174-0.047c-0.641-0.15-1.262-0.305-1.869-0.502c-0.604-0.199-1.196-0.401-1.742-0.659
		c-0.547-0.253-1.065-0.523-1.527-0.83c-0.468-0.297-0.882-0.62-1.253-0.932c-0.365-0.319-0.69-0.626-0.966-0.911
		c-0.136-0.145-0.263-0.281-0.381-0.405c-0.113-0.13-0.217-0.249-0.311-0.357c-0.188-0.216-0.327-0.393-0.426-0.51
		c-0.098-0.118-0.15-0.181-0.15-0.181s0.045,0.068,0.129,0.196c0.088,0.125,0.203,0.322,0.376,0.55
		c0.085,0.117,0.18,0.244,0.283,0.383c0.105,0.137,0.226,0.282,0.351,0.439c0.255,0.309,0.56,0.647,0.916,0.991
		c0.179,0.172,0.374,0.343,0.577,0.518c0.21,0.165,0.423,0.345,0.661,0.504c0.463,0.333,0.986,0.64,1.547,0.911
		c0.559,0.277,1.159,0.511,1.778,0.716c0.617,0.204,1.265,0.372,1.897,0.526c0.418,0.109,0.835,0.219,1.25,0.327
		c-0.203,0.229-0.406,0.482-0.559,0.73c0,0,0.748-0.114,1.151-0.114c0,0-0.392,0.393-0.57,1.12
		c-0.546,0.175-1.101,0.334-1.661,0.472c-0.763,0.192-1.536,0.341-2.3,0.412c-0.192,0.013-0.382,0.026-0.571,0.038
		c-0.19,0.002-0.378,0.005-0.564,0.006c-0.185-0.011-0.367-0.023-0.549-0.034c-0.188-0.025-0.374-0.049-0.559-0.073
		c-0.051-0.007-0.099-0.013-0.148-0.02c-1.325-0.771-2.46-1.67-3.381-2.516c-1.035-0.958-1.81-1.852-2.286-2.525
		c-0.123-0.166-0.219-0.323-0.312-0.454c-0.083-0.138-0.154-0.254-0.212-0.349c-0.105-0.195-0.161-0.299-0.161-0.299
		s0.048,0.109,0.139,0.311c0.098,0.199,0.245,0.491,0.471,0.84c0.219,0.354,0.515,0.763,0.876,1.217
		c0.361,0.454,0.793,0.946,1.3,1.45c0.505,0.505,1.08,1.025,1.727,1.529c0.294,0.229,0.605,0.458,0.928,0.679
		c-0.01-0.002-0.021-0.003-0.032-0.005c-0.089-0.011-0.178-0.023-0.266-0.032c-0.086-0.017-0.172-0.033-0.257-0.049
		c-0.171-0.031-0.34-0.063-0.506-0.095c-0.334-0.062-0.657-0.123-0.97-0.183c-0.312-0.075-0.612-0.148-0.9-0.217
		c-0.145-0.034-0.286-0.069-0.424-0.102c-0.138-0.037-0.269-0.08-0.399-0.117c-0.26-0.076-0.507-0.148-0.739-0.216
		c-0.23-0.072-0.441-0.154-0.639-0.222c-0.197-0.07-0.38-0.131-0.538-0.202c-0.161-0.065-0.305-0.124-0.43-0.175
		c-0.125-0.053-0.228-0.104-0.313-0.142c-0.171-0.076-0.257-0.126-0.257-0.126s0.081,0.057,0.245,0.148
		c0.161,0.095,0.402,0.226,0.718,0.377c0.155,0.081,0.333,0.154,0.527,0.237c0.194,0.082,0.401,0.177,0.628,0.265
		c0.459,0.159,0.967,0.379,1.548,0.529c0.288,0.084,0.589,0.172,0.899,0.262c0.314,0.079,0.643,0.145,0.979,0.223
		c0.169,0.037,0.339,0.075,0.513,0.113c0.086,0.019,0.173,0.038,0.261,0.057c0.087,0.014,0.175,0.028,0.264,0.042
		c0.286,0.045,0.58,0.089,0.876,0.135c0.142,0.085,0.283,0.17,0.43,0.251c0.44,0.243,0.901,0.473,1.383,0.673
		c-0.309,0.161-0.615,0.33-0.914,0.506c-0.346,0.205-0.685,0.411-1.017,0.614c-0.662,0.404-1.3,0.785-1.939,1.072
		c-0.637,0.292-1.275,0.482-1.873,0.624c-0.151,0.033-0.298,0.064-0.441,0.096c-0.145,0.027-0.288,0.044-0.427,0.069
		c-0.139,0.022-0.274,0.044-0.406,0.064c-0.132,0.015-0.262,0.029-0.387,0.043c-0.499,0.063-0.939,0.071-1.301,0.099
		c-0.725,0.02-1.139,0.033-1.139,0.033s0.103,0.005,0.297,0.017c0.194,0.008,0.479,0.032,0.843,0.04
		c0.364-0.004,0.806,0.016,1.313-0.018c0.127-0.005,0.258-0.011,0.393-0.018c0.135-0.013,0.274-0.026,0.416-0.04
		c0.142-0.014,0.288-0.027,0.437-0.05c0.148-0.025,0.3-0.05,0.455-0.076c0.618-0.116,1.287-0.284,1.955-0.568
		c0.671-0.276,1.341-0.644,2.011-1.04c0.335-0.197,0.676-0.393,1.022-0.59c0.345-0.19,0.695-0.381,1.062-0.566
		c0.067-0.035,0.135-0.065,0.202-0.097c0.201,0.069,0.406,0.133,0.615,0.188c0.458,0.133,0.938,0.207,1.421,0.258
		c0.486,0.037,0.979,0.024,1.468-0.052c0.122-0.02,0.242-0.052,0.363-0.078l0.181-0.042l0.18-0.06
		c0.018-0.007,0.037-0.012,0.056-0.019c0.158,0.664,0.332,1.193,0.44,1.766c0.173,0.921,0,1.899-0.058,2.878
		c-0.058,0.978,0.384,3.146-0.69,6.216c-1.074,3.069-1.382,5.984-1.074,9.514c0.307,3.531,0,5.066-0.154,7.367
		c-0.154,2.302-0.461,3.376-1.381,5.218c-0.92,1.842-2.302,4.297-3.223,5.065c-0.921,0.767-1.688,2.148-1.688,2.148l1.535-0.46
		c0,0-1.074,1.228-1.688,2.915c-0.614,1.689,0,3.837-0.614,5.986c-0.614,2.147-1.381,3.99-1.381,3.99s1.535-0.767,2.148-1.535
		c0,0-0.153,2.762-1.228,4.758c-1.074,1.994-1.381,4.911-1.535,6.599c0,0,1.074-2.302,1.688-2.762c0,0-0.461,2.149-0.921,4.451
		c-0.46,2.302-0.921,3.99-1.074,5.371c-0.153,1.382-1.075,4.297-1.075,4.297s2.302-1.841,3.223-3.683c0,0-1.074,4.757-0.92,6.906
		c0.153,2.149-0.307,3.99-1.075,5.372c-0.767,1.381-1.995,4.911-2.302,6.752l1.074-1.074c0,0-0.153,1.995-0.153,4.757
		c0,2.764-0.614,4.451-0.307,6.141c0.307,1.688,0,4.297,0.767,5.984c0.768,1.688,1.382,3.53,1.228,4.604
		c-0.153,1.073,0.307,3.683,0.307,3.683s0.614-1.228,0.921-2.148c0,0,0.921,1.228,0.46,3.224c-0.46,1.995,0.614,4.144,0.614,4.144
		s0.307-0.768,0.46-1.382c0,0,0.731,1.037,1.517,2.381c-4.691,0.23-10.355,2.115-18.091,2.607
		c-9.236,0.587-10.322,4.721-10.322,4.721s2.333-0.837,3.484-0.795c0,0-2.103,0.735-4.797,2.603
		c-1.609,1.115-4.761,1.203-6.47,3.209c-4.571,5.363-7.842,6.628-8.452,10.751L34.594,392.144z M158.947,248.077
		c-0.046-0.206-0.075-0.422-0.075-0.65c0,0,0.224,0.337,0.503,0.704C159.232,248.113,159.089,248.094,158.947,248.077z
		 M158.617,250.18c0.182-0.033,0.832-0.144,1.482-0.144c0,0-0.204-0.18-0.445-0.494c0.202,0.085,0.406,0.169,0.613,0.254
		c0.472,0.2,0.959,0.404,1.448,0.616c-0.09-0.003-0.181-0.006-0.27-0.011c-0.559-0.03-1.11-0.058-1.642-0.104
		C159.395,250.264,158.998,250.224,158.617,250.18z M79.905,250.233c0.077-0.024,0.154-0.049,0.234-0.07
		c0.387-0.113,0.787-0.195,1.189-0.273c0.657-0.122,1.321-0.212,1.982-0.283c0.033,0.225,0.07,0.433,0.108,0.628
		c-0.248,0.089-0.499,0.161-0.756,0.197c-0.447,0.07-0.903,0.086-1.357,0.055c-0.453-0.045-0.905-0.111-1.342-0.237
		C79.944,250.246,79.924,250.238,79.905,250.233z M83.253,248.659c-0.011,0.157-0.011,0.326,0.004,0.504
		c-0.667,0.068-1.341,0.156-2.013,0.275c-0.413,0.08-0.825,0.169-1.23,0.289c-0.271,0.074-0.544,0.173-0.806,0.287
		c-0.42-0.148-0.829-0.322-1.223-0.512c0.078,0.006,0.154,0.013,0.233,0.019c0.197,0.001,0.396,0.002,0.594,0.004
		c0.198-0.012,0.397-0.019,0.596-0.035c0.796-0.069,1.591-0.217,2.372-0.409C82.277,248.956,82.769,248.813,83.253,248.659z
		 M82.759,245.814c0.385-0.047,0.885-0.102,1.269-0.117c-0.086,0.079-0.219,0.204-0.372,0.359
		C83.359,245.977,83.06,245.895,82.759,245.814z M84.707,243.878c0,0-0.344,0.226-0.782,0.539c-0.223-0.11-0.446-0.217-0.67-0.332
		c0.086-0.057,0.17-0.108,0.243-0.15C83.9,243.706,84.707,243.878,84.707,243.878z"/>
</g>
</svg>
