<?xml version="1.0" encoding="utf-8"?>
<!-- Generator: Adobe Illustrator 27.5.0, SVG Export Plug-In . SVG Version: 6.00 Build 0)  -->
<svg version="1.1" xmlns="http://www.w3.org/2000/svg" xmlns:xlink="http://www.w3.org/1999/xlink" x="0px" y="0px"
	 viewBox="0 0 500 500" style="enable-background:new 0 0 500 500;" xml:space="preserve">
<g id="BACKGROUND">
	
		<ellipse transform="matrix(0.3603 -0.9328 0.9328 0.3603 -79.4904 397.1043)" style="fill:#BBE1E4;" cx="249.793" cy="256.511" rx="166.662" ry="230.089"/>
</g>
<g id="OBJECTS">
	<g>
		<path style="fill:#1D1D1B;" d="M255.162,210.337c0.673-0.258,1.13,0.858,0.486,1.159c-4.035,1.831-7.997,3.677-11.932,5.651
			c0.443,3.148,0.501,6.352,0.086,9.543c-1.602,11.946-9.614,20.602-19.7,25.838c1.116,5.165-0.715,8.741-4.12,11.216
			c11.531,13.978,12.003,33.263,10.301,50.503c-1.889,18.885-5.737,37.841-15.652,54.265c1.459,0.143,2.861,0.558,4.163,1.388
			c2.475,1.588,4.12,4.449,3.29,7.397c-2.375,8.57-14.993,6.71-21.102,4.693c-0.372-0.114-0.401-0.629-0.143-0.815
			c-0.157-0.143-0.258-0.358-0.229-0.615c1.216-14.149-1.874-27.24-3.62-41.16c-1.803-0.2-3.591-0.558-5.365-1.102
			c0.83,11.431-3.105,22.805-9.442,32.204c-0.129,0.186-0.286,0.286-0.443,0.358c5.122,0.057,10.458,3.691,9.829,9.342
			c-0.901,8.04-13.92,5.68-18.37,2.904c-0.043-0.029-0.086-0.057-0.115-0.1c-0.329-0.043-0.63-0.229-0.772-0.615
			c-5.079-13.148-7.983-27.426-6.967-41.547c-15.995,3.548-32.748,3.019-48.271-1.745c-0.3,9.328-2.761,19.429-7.525,27.526
			c2.06,0.1,4.063,0.687,5.694,2.017c2.432,1.974,3.763,5.565,2.561,8.57c-2.919,7.339-13.906,4.95-18.842,1.388
			c-4.521,7.139-15.88,6.61-19.829-0.787c-0.601,0.072-1.23-0.258-1.187-1.03c0.744-12.304-2.06-24.193-8.799-34.594
			c-5.036-7.811-11.817-14.464-16.195-22.719c-8.126-15.28-4.077-34.951,3.376-49.759c1.345-2.69,2.89-5.193,4.578-7.54
			c-16.324-6.767-26.653-25.294-21.517-42.706c3.577-12.118,13.563-22.09,4.879-35.008c-3.162-4.721-11.603-9.271-9.915-15.523
			c-0.071-0.086-0.129-0.215-0.057-0.372c0.229-0.443,0.472-0.873,0.73-1.273c0.172-0.329,0.372-0.644,0.601-0.987
			c0.1-0.143,0.229-0.229,0.372-0.272c4.063-4.564,11.36-4.993,16.925-2.447c7.811,3.548,12.704,12.375,12.433,20.831
			c-0.401,12.304-11.603,22.533-15.666,33.792c-2.904,8.069-4.106,16.581,0.773,24.135c3.934,6.08,10.172,10.015,16.868,12.432
			c8.169-7.811,18.613-12.862,30.344-15.022c8.899-1.66,16.524-0.487,24.636,3.405c10.873,5.208,21.431,12.776,34.05,8.799
			c0.057-0.014,0.114-0.014,0.186-0.014c0.386-0.73,0.887-1.488,1.531-2.275c-1.989-1.159-3.906-2.418-5.723-3.834
			c-12.161-9.5-20.544-27.025-14.793-42.219c-0.029-0.014-0.072-0.014-0.115-0.043c-0.086-0.043-0.143-0.072-0.215-0.115
			c-0.157,0.401-0.529,0.701-1.044,0.587c-5.222-1.23-9.7-4.12-12.518-8.741c-3.863-6.309-2.06-14.106-5.78-20.444
			c-0.372-0.63,0.115-1.302,0.773-1.359c10.844-0.873,23.749-4.621,32.591,3.777c2.89-8.87,11.588-22.132,21.975-22.49
			c3.591-0.129,8.155,1.717,9.829,5.122c0.272,0.572,0.458,1.116,0.558,1.66c1.259-0.157,2.547-0.143,3.791,0.1
			c0.587-12.247,13.52-16.868,23.52-19.743c0.515-0.157,1.23,0.272,1.159,0.873c-1.273,10.473,6.81,18.627,1.516,28.685
			c0.286,0.072,0.529,0.243,0.673,0.572c2.561,6.223,8.87,10.387,13.348,15.165c3.348,3.562,6.467,7.368,9.085,11.517
			c2.232,3.548,4.106,7.425,5.408,11.474c2.861-2.032,5.78-4.006,8.727-5.909c0.558-0.358,1.059,0.529,0.515,0.901
			c-2.976,2.003-5.952,4.035-8.927,6.052c0.444,1.502,0.787,3.033,1.059,4.564C247.25,213.699,251.184,211.81,255.162,210.337z
			 M211.44,255.274c18.241-4.163,32.39-18.527,30.416-37.197c-0.887,0.458-1.774,0.901-2.647,1.373
			c-0.529,0.286-0.959-0.472-0.472-0.787c0.973-0.63,1.974-1.216,2.976-1.817c-0.2-1.373-0.472-2.775-0.844-4.192
			c-0.029-0.1-0.057-0.2-0.086-0.286c-1.86,1.245-3.705,2.504-5.565,3.748c-0.3,0.215-0.687-0.286-0.386-0.501
			c1.846-1.459,3.748-2.861,5.665-4.235c-2.747-9.085-8.613-16.896-15.094-23.663c-4.635-4.85-10.372-8.784-12.99-15.151
			c-0.014-0.057-0.014-0.1-0.029-0.157c-0.544-0.115-1.016-0.715-0.658-1.359c3.577-6.338,1.588-11.002-0.458-17.197
			c-0.4-1.202-1.402-9.385-1.516-9.442c-1.202-0.558-4.807,1.202-6.08,1.674c-2.418,0.916-4.85,2.017-6.996,3.477
			c-4.392,2.976-7.268,7.182-8.226,12.39c0.358,0.329,0.057,1.044-0.529,0.93c-1.402-0.257-2.79-0.415-4.206-0.501
			c0.086,1.359-0.3,2.647-0.916,3.863c6.152-2.046,14.679,1.302,13.362,9.07c-1.259,7.54-9.585,8.155-15.752,6.467
			c0.458,1.617-0.157,3.534-1.545,4.621c-2.575,2.046-6.424,0.687-8.312-1.631c-0.63-0.773,0.401-1.86,1.116-1.116
			c1.459,1.517,3.848,2.904,5.952,1.717c1.316-0.744,2.031-2.489,1.66-3.934c-0.572-0.2-1.13-0.401-1.645-0.63
			c-0.873-0.386-0.229-1.846,0.644-1.531c5.079,1.803,12.676,3.462,15.666-2.661c1.588-3.276-0.043-7.025-3.076-8.799
			c-2.575-1.502-5.68-1.416-8.498-0.787c-0.644,1.059-1.445,2.089-2.246,3.047c-0.544,0.644-1.431-0.286-0.916-0.93
			c3.963-3.677,3.09-7.811-2.647-12.404c-2.861-0.758-5.623-0.386-8.269,1.116c-2.59,1.273-4.736,3.477-6.71,5.551
			c-4.092,4.292-6.91,9.271-9.786,14.393c-0.029,0.072-0.086,0.1-0.143,0.129c-0.057,0.329-0.415,0.63-0.744,0.372
			c-9.285-7.068-20.215-4.192-30.831-3.133c1.803,3.734,2.017,7.654,2.69,11.803c1.245,7.797,6.095,13.491,13.892,15.323
			c0.172,0.043,0.301,0.129,0.401,0.229c0.286,0.029,0.587,0.1,0.858,0.243c0.243-0.415,0.887-0.257,0.773,0.272
			c-5.422,24.736,9.585,41.261,29.686,48.943c6.367-4.077,13.076-7.697,19.958-10.716c0.472-0.2,0.887,0.443,0.415,0.701
			c-6.281,3.405-12.404,6.967-18.427,10.73c2.775,0.959,5.637,1.76,8.541,2.404c3.448-3.462,7.182-6.738,10.773-9.8
			c0.501-0.443,1.216,0.243,0.744,0.73c-3.09,3.119-6.152,6.367-9.256,9.528C191.325,257.491,201.984,257.42,211.44,255.274z
			 M228.265,315.534c2.103-18.127,0.873-35.581-8.956-51.318c-2.26,1.459-5.107,2.504-8.212,3.233c0,0-0.014,0-0.014,0.014
			c4.449-0.3,8.756,2.375,9.814,6.967c0.687,2.947-0.129,5.723-1.888,7.754c-1.431,6.567-12.476,6.323-16.496,1.845
			c-4.364-4.879-3.219-11.903,1.545-15.465c-7.697,0.787-15.594,0.372-19.729,0.157c-7.439-0.401-32.104-3.906-28.542-15.036
			c-17.168,6.553-30.716-11.031-47.169-12.49c-14.693-1.288-29.157,5.122-39.615,15.351c-0.1,0.315-0.329,0.572-0.658,0.658
			c-4.292,4.335-7.869,9.314-10.458,14.664c-4.449,9.214-7.196,20.015-7.068,30.273c0.129,11.245,5.68,19.743,12.318,28.313
			c10.873,14.035,18.098,28.084,16.996,46.325c-0.014,0.257-0.115,0.458-0.243,0.615c4.535,3.691,10.687,6.982,15.895,2.175
			c0-0.014,0.014-0.014,0.029-0.029c-1.602-2.218-3.419-3.505-6.295-3.82c-0.401-0.043-0.386-0.558,0-0.615
			c2.675-0.343,5.751,1.13,7.196,3.462c0.801-0.973,1.416-2.103,1.717-3.262c-0.172,0.029-0.343-0.029-0.472-0.2
			c-1.588-1.86-3.763-2.718-6.195-2.532c-0.343,0.029-0.401-0.515-0.086-0.601c2.504-0.587,5.122,0.215,6.939,2.003
			c0.029-1.531-0.615-2.976-2.332-3.992c-2.733-1.631-6.037-0.629-8.77,0.358c-0.887,0.315-1.345-1.001-0.615-1.459
			c1.159-0.744,2.575-1.23,4.063-1.459c-0.086-0.243-0.086-0.529,0.1-0.815c6.338-10.329,12.104-20.373,12.518-32.791
			c0-0.029,0.014-0.043,0.014-0.057c-3.076-1.545-6.095-3.248-8.999-5.179c-0.486-0.329-0.057-1.102,0.472-0.815
			c23.649,13.162,50.703,17.154,76.798,9.299c1.259-0.386,1.788,1.588,0.544,1.96c-2.032,0.615-4.077,1.13-6.123,1.617
			c0.014,0.043,0.043,0.057,0.043,0.115c0.858,14.278,2.89,27.669,7.797,41.132c0.043,0.114,0.057,0.229,0.057,0.329
			c3.562,1.03,9.872,3.219,13.491,1.059c-0.115-0.114-0.229-0.258-0.258-0.529c-0.129-1.001-1.688-2.046-2.461-2.504
			c-1.059-0.63-2.175-0.93-3.391-1.087c-0.286-0.029-0.3-0.458,0-0.472c1.245-0.014,2.475,0.286,3.591,0.83
			c0.572,0.272,1.102,0.615,1.588,1.001c0.615,0.472,1.087,1.216,1.731,1.617c0.143,0.086,0.243,0.186,0.301,0.286
			c0.2-0.229,0.401-0.486,0.587-0.758c0.286-0.472,0.472-0.944,0.587-1.431c-0.029-0.014-0.043-0.014-0.057-0.043
			c-1.617-1.989-3.562-3.205-6.123-3.605c-0.4-0.072-0.3-0.773,0.1-0.73c2.203,0.272,4.392,1.188,6.095,2.661
			c-0.472-2.489-2.933-4.707-5.065-5.594c-2.418-1.001-4.85-0.916-7.311-0.143c-0.529,0.157-0.873-0.644-0.386-0.901
			c1.159-0.615,2.461-0.93,3.805-1.001c-0.544-0.186-0.93-0.758-0.529-1.374c6.381-9.814,9.013-19.886,10.129-31.417
			c0.014-0.057,0.043-0.072,0.057-0.115c-0.258-0.1-0.515-0.172-0.787-0.272c-0.572-0.229-0.343-1.13,0.258-0.944
			c8.055,2.418,16.023,1.402,23.334-2.704c0.987-0.558,1.86,0.944,0.887,1.531c-5.107,3.119-10.873,4.392-16.61,3.906
			c4.206,13.133,6.495,27.598,4.621,41.318c-0.029,0.186-0.115,0.315-0.229,0.415c4.292,0.515,8.813,1.316,12.99-0.1
			c1.545-0.529,2.489-1.03,3.119-1.817c-0.801-0.486-1.502-1.116-2.361-1.545c-1.187-0.601-2.432-0.958-3.748-1.102
			c-0.515-0.043-0.529-0.83,0-0.801c2.146,0.143,5.05,0.658,6.781,2.175c0.172-0.472,0.301-1.03,0.415-1.688
			c-0.215,0.114-0.472,0.129-0.672-0.072c-1.774-1.774-3.491-3.133-6.166-2.919c-0.358,0.029-0.343-0.515,0-0.558
			c2.518-0.272,5.637,0.501,7.053,2.79c0.029,0.029,0.029,0.072,0.043,0.1c0.629-1.717,0.029-3.062-1.831-4.034
			c-0.615-0.286-1.245-0.572-1.86-0.873c-2.747-0.844-5.809-0.129-8.541,0.444c-1.23,0.272-1.745-1.602-0.515-1.874
			c1.745-0.386,3.605-0.758,5.465-0.873c-0.043-0.215-0.014-0.443,0.129-0.687C221.87,351.816,226.133,333.818,228.265,315.534z
			 M187.992,267.005c8.184,0.286,36.911,1.431,34.408-13.634c-4.864,2.303-10.129,3.834-15.337,4.592
			c-8.927,1.288-18.542,1.216-27.798-0.544c-1.617,1.602-3.248,3.176-4.921,4.678c-0.658,0.587-1.488-0.286-0.944-0.958
			c1.145-1.416,2.361-2.804,3.648-4.163c-3.147-0.701-6.252-1.588-9.242-2.69c-1.402,0.887-2.804,1.774-4.192,2.675
			c-0.801,0.529-1.502-0.73-0.744-1.259c1.03-0.73,2.06-1.445,3.105-2.146c-2.475-1.001-4.864-2.146-7.168-3.434
			C149.664,265.274,180.152,266.734,187.992,267.005z M218.751,279.495c1.001-2.046,1.044-4.535-0.272-6.781
			c-1.874-3.205-5.537-4.149-8.985-3.763c-0.257,0.043-0.429-0.1-0.529-0.286c-3.305,1.874-5.665,6.538-4.779,10.129
			c1.03,4.135,5.995,5.737,9.743,4.693c1.674-0.458,3.047-1.445,4.02-2.69c0.014-0.243,0.014-0.501-0.014-0.772
			C217.893,279.524,218.379,279.352,218.751,279.495z M215.833,284.546c-0.758,0.358-1.574,0.629-2.447,0.787
			c-4.85,0.873-10.63-1.946-11.059-7.282c-0.272-3.448,1.474-7.711,4.449-9.814c-0.286,0.043-0.572,0.072-0.858,0.115
			c-4.263,2.718-6.51,8.069-3.934,12.876c1.488,2.776,4.02,4.535,7.153,4.936C211.283,286.434,213.987,285.919,215.833,284.546z
			 M115.442,338.84c0.014-0.072,0.043-0.143,0.071-0.215c-3.662-1.188-7.239-2.618-10.73-4.292
			c0.744,12.175-5.451,22.905-11.717,32.934c2.175,0.043,4.306,0.687,5.837,2.103c2.346,2.175,1.874,5.794,0.501,8.441
			c4.049,1.946,9.943,3.52,14.149,1.259c-2.132-1.431-4.335-2.461-6.939-2.876c-0.358-0.057-0.272-0.658,0.086-0.644
			c2.876,0.172,5.651,1.044,7.983,2.747c0.815-0.73,1.259-1.66,1.431-2.633c-2.318-2.103-4.879-3.405-7.969-4.106
			c-0.372-0.086-0.286-0.715,0.1-0.672c2.804,0.272,5.522,1.302,7.854,2.919c-0.272-1.402-1.03-2.761-2.218-3.691
			c-2.375-1.86-5.394-1.817-8.198-1.273c-1.13,0.215-1.631-1.459-0.486-1.76c1.001-0.258,2.06-0.401,3.104-0.458
			C111.665,357.281,114.212,348.783,115.442,338.84z M62.722,188.032c3.333-13.663-13.835-32.662-25.752-21.489
			c0.029,0.143,0.014,0.315-0.086,0.501c-3.977,6.495,4.721,11.059,7.797,14.836c2.175,2.675,3.691,5.909,4.478,9.256
			c1.502,6.367-0.157,12.218-2.962,17.926c-4.936,10.043-8.212,19.243-4.406,30.402c3.376,9.943,11.016,16.624,19.858,21.66
			c1.259-1.645,2.589-3.205,4.006-4.678c-7.153-2.632-13.763-7.11-17.683-13.792c-4.65-7.94-3.391-16.725-0.401-25.037
			C51.305,207.218,60.133,198.648,62.722,188.032z"/>
		<path style="fill:#F09C26;" d="M241.856,218.077c1.974,18.67-12.175,33.034-30.416,37.197c-9.457,2.146-20.115,2.218-30.316,0.286
			c3.105-3.162,6.166-6.409,9.256-9.528c0.472-0.486-0.243-1.173-0.744-0.73c-3.591,3.062-7.325,6.338-10.773,9.8
			c-2.904-0.644-5.766-1.445-8.541-2.404c6.023-3.763,12.146-7.325,18.427-10.73c0.472-0.258,0.057-0.901-0.415-0.701
			c-6.882,3.019-13.591,6.638-19.958,10.716c-20.101-7.683-35.109-24.207-29.686-48.943c0.114-0.529-0.529-0.687-0.773-0.272
			c-0.272-0.143-0.572-0.215-0.858-0.243c-0.1-0.1-0.229-0.186-0.401-0.229c-7.797-1.831-12.647-7.525-13.892-15.323
			c-0.672-4.149-0.887-8.069-2.69-11.803c10.616-1.059,21.546-3.934,30.831,3.133c0.329,0.257,0.687-0.043,0.744-0.372
			c0.057-0.029,0.114-0.057,0.143-0.129c2.876-5.122,5.694-10.101,9.786-14.393c1.974-2.074,4.12-4.278,6.71-5.551
			c2.647-1.502,5.408-1.874,8.269-1.116c5.737,4.592,6.61,8.727,2.647,12.404c-0.515,0.644,0.372,1.574,0.916,0.93
			c0.801-0.959,1.602-1.989,2.246-3.047c2.818-0.63,5.923-0.715,8.498,0.787c3.033,1.774,4.664,5.522,3.076,8.799
			c-2.99,6.123-10.587,4.464-15.666,2.661c-0.873-0.315-1.517,1.145-0.644,1.531c0.515,0.229,1.073,0.429,1.645,0.63
			c0.372,1.445-0.343,3.19-1.66,3.934c-2.103,1.188-4.492-0.2-5.952-1.717c-0.715-0.744-1.746,0.343-1.116,1.116
			c1.889,2.318,5.737,3.677,8.312,1.631c1.388-1.087,2.003-3.004,1.545-4.621c6.166,1.688,14.493,1.073,15.752-6.467
			c1.316-7.769-7.211-11.116-13.362-9.07c0.615-1.216,1.001-2.504,0.916-3.863c1.416,0.086,2.804,0.243,4.206,0.501
			c0.587,0.114,0.887-0.601,0.529-0.93c0.959-5.208,3.834-9.414,8.226-12.39c2.146-1.459,4.578-2.561,6.996-3.477
			c1.273-0.472,4.879-2.232,6.08-1.674c0.115,0.057,1.116,8.241,1.516,9.442c2.046,6.195,4.035,10.859,0.458,17.197
			c-0.358,0.644,0.114,1.245,0.658,1.359c0.014,0.057,0.014,0.1,0.029,0.157c2.618,6.367,8.355,10.301,12.99,15.151
			c6.481,6.767,12.347,14.579,15.094,23.663c-1.917,1.373-3.82,2.775-5.665,4.235c-0.3,0.215,0.086,0.715,0.386,0.501
			c1.86-1.245,3.705-2.504,5.565-3.748c0.029,0.086,0.057,0.186,0.086,0.286c0.372,1.416,0.644,2.818,0.844,4.192
			c-1.001,0.601-2.003,1.188-2.976,1.817c-0.486,0.315-0.057,1.073,0.472,0.787C240.082,218.978,240.969,218.534,241.856,218.077z
			 M230.368,209.822c0.501,0.973,1.946,0.115,1.459-0.844c-1.631-3.219-5.952-4.707-9.099-2.733
			c-2.962,1.86-3.806,6.209-1.559,8.927c0.415,0.501,1.059-0.143,0.83-0.644c-1.059-2.346-0.687-5.622,1.774-6.967
			C226.191,206.245,229.195,207.504,230.368,209.822z M230.196,233.17c0.386-0.73-0.572-1.574-1.187-0.916
			c-2.346,2.489-4.721,4.521-7.368,5.98c-0.086-0.229-0.172-0.458-0.3-0.687c0-0.114-0.014-0.229-0.086-0.358
			c-1.187-2.189-2.575-4.221-4.092-6.181c0.501-0.315,0.973-0.801,1.402-1.545c1.102-1.931,2.675-7.068-1.173-6.91
			c-1.645,0.072-3.333,1.216-4.778,1.903c-1.188,0.572-3.291,1.116-3.648,2.618c-0.673,2.89,3.863,4.249,6.309,4.278
			c0.329,0.057,0.672,0.057,1.001-0.014c1.087,2.289,2.289,4.478,3.748,6.567c0.043,0.057,0.086,0.1,0.143,0.143
			c0.1,0.272,0.229,0.515,0.372,0.758c-2.804,1.345-5.909,2.046-9.571,1.96c-0.429-0.014-0.529,0.673-0.1,0.758
			C217.893,242.942,226.806,239.88,230.196,233.17z M209.223,167.617c2.246-1.545,2.947-3.934,2.532-6.595
			c-0.458-2.89-5.451-9.042-3.076-11.302c0.501-0.486-0.029-1.316-0.63-1.188c0.687-0.472,0.014-1.588-0.773-1.173
			c-5.78,3.062-15.551,6.581-15.079,14.607c0.029,0.415,0.443,0.544,0.715,0.4c0.1,0.057,0.215,0.072,0.358,0.014
			c1.931-0.844,3.863-1.645,5.909-2.203c0.701-0.186,1.874-0.687,2.589-0.572c2.246,1.03,2.661,2.074,1.23,3.119
			c-0.529,0.358-1.03,0.73-1.545,1.102c-0.715,0.529-0.114,1.588,0.701,1.202c0.157-0.072,0.315-0.172,0.486-0.272
			c1.116-0.515,2.389-1.145,3.605-0.572c1.102,0.515,1.23,1.488,0.873,2.504c-0.243,0.644,0.615,1.001,1.059,0.615
			c0.172-0.143,0.3-0.315,0.386-0.486l0.086,0.057C208.293,167.259,208.751,167.946,209.223,167.617z M200.624,225.101
			c0.63,0.916,2.132,0.057,1.502-0.873c-1.817-2.718-5.551-3.891-8.47-2.175c-2.775,1.617-3.891,5.594-2.046,8.298
			c0.358,0.544,1.345,0.229,1.116-0.472c-0.715-2.132-0.458-4.693,1.517-6.109C196.29,222.326,199.251,223.084,200.624,225.101z
			 M199.509,174.584c-0.014,0.544,0.873,0.544,0.844,0c-0.072-1.388-0.386-2.704-0.958-3.963c-0.143-0.315-0.672-0.086-0.544,0.229
			C199.294,172.052,199.523,173.282,199.509,174.584z M198.064,174.198c0.029-1.889-0.572-3.777-1.488-5.422
			c-0.157-0.286-0.558-0.029-0.429,0.257c0.744,1.674,1.03,3.348,1.102,5.165C197.277,174.713,198.064,174.727,198.064,174.198z
			 M145.901,183.039c0.715,0.515,1.66-0.472,0.987-1.145c-5.88-5.894-14.607-5.766-22.318-4.721c-0.229,0.029-0.243,0.3-0.129,0.443
			l-0.029,0.315c-0.515-0.114-1.073,0.429-0.787,1.059c1.517,3.376,2.16,6.424,2.632,10.043c0.258,2.046,0.658,4.063,1.946,5.737
			c2.189,2.847,5.894,3.906,9.385,4.006c0.114,0.086,0.215,0.172,0.343,0.243c0.315,0.172,0.73,0.014,0.916-0.272
			c0.4-0.086,0.501-0.701,0.043-0.801c-0.086-0.029-0.172-0.043-0.243-0.057c-0.944-1.245-1.745-2.475-1.345-4.149
			s1.831-2.733,3.419-3.119c0.215,0.043,0.415,0.1,0.601,0.143c0.687,0.186,1.087-0.773,0.486-1.145
			c-1.517-0.959-7.296-1.316-4.406-4.478C139.163,183.225,143.34,183.24,145.901,183.039z M143.326,222.726
			c0.315,0.286,0.815-0.072,0.586-0.443c-0.873-1.474-1.459-2.69-1.03-4.449c0.057-0.229-0.258-0.3-0.329-0.1
			C141.924,219.293,142.024,221.539,143.326,222.726z M140.737,222.512c0.172,0.343,0.658,0.1,0.587-0.243
			c-0.172-0.887-0.515-1.731-0.687-2.618c-0.186-1.016-0.215-2.017-0.143-3.047c0.014-0.172-0.286-0.215-0.3-0.043
			C139.921,218.449,139.835,220.781,140.737,222.512z"/>
		<path style="fill:#1D1D1B;" d="M231.827,208.977c0.486,0.959-0.959,1.817-1.459,0.844c-1.173-2.318-4.178-3.577-6.595-2.26
			c-2.461,1.345-2.833,4.621-1.774,6.967c0.229,0.501-0.415,1.145-0.83,0.644c-2.246-2.718-1.402-7.067,1.559-8.927
			C225.876,204.27,230.196,205.758,231.827,208.977z"/>
		<path style="fill:#1D1D1B;" d="M229.009,232.254c0.615-0.658,1.574,0.186,1.187,0.916c-3.391,6.71-12.304,9.771-19.328,8.355
			c-0.429-0.086-0.329-0.773,0.1-0.758c3.663,0.086,6.767-0.615,9.571-1.96c-0.143-0.243-0.272-0.486-0.372-0.758
			c-0.057-0.043-0.1-0.086-0.143-0.143c-1.459-2.089-2.661-4.278-3.748-6.567c-0.329,0.071-0.672,0.071-1.001,0.014
			c-2.446-0.029-6.982-1.388-6.309-4.278c0.358-1.502,2.461-2.046,3.648-2.618c1.445-0.687,3.133-1.831,4.778-1.903
			c3.848-0.157,2.275,4.979,1.173,6.91c-0.429,0.744-0.901,1.23-1.402,1.545c1.517,1.96,2.904,3.992,4.092,6.181
			c0.072,0.129,0.086,0.243,0.086,0.358c0.129,0.229,0.215,0.458,0.3,0.687C224.288,236.775,226.663,234.744,229.009,232.254z"/>
		<path style="fill:#F09C26;" d="M219.309,264.216c9.829,15.737,11.059,33.192,8.956,51.318
			c-2.132,18.284-6.395,36.282-15.823,52.248c-0.143,0.243-0.172,0.472-0.129,0.687c-1.86,0.114-3.72,0.486-5.465,0.873
			c-1.23,0.272-0.715,2.146,0.515,1.874c2.733-0.572,5.794-1.288,8.541-0.444c0.615,0.301,1.245,0.587,1.86,0.873
			c1.86,0.973,2.461,2.318,1.831,4.034c-0.014-0.029-0.014-0.072-0.043-0.1c-1.416-2.289-4.535-3.062-7.053-2.79
			c-0.343,0.043-0.358,0.587,0,0.558c2.675-0.215,4.392,1.145,6.166,2.919c0.2,0.2,0.458,0.186,0.672,0.072
			c-0.114,0.658-0.243,1.216-0.415,1.688c-1.731-1.517-4.635-2.032-6.781-2.175c-0.529-0.029-0.515,0.758,0,0.801
			c1.316,0.143,2.561,0.501,3.748,1.102c0.858,0.429,1.559,1.059,2.361,1.545c-0.63,0.787-1.574,1.288-3.119,1.817
			c-4.178,1.416-8.699,0.615-12.99,0.1c0.114-0.1,0.2-0.229,0.229-0.415c1.874-13.72-0.415-28.184-4.621-41.318
			c5.737,0.486,11.503-0.787,16.61-3.906c0.973-0.587,0.1-2.089-0.887-1.531c-7.311,4.106-15.28,5.122-23.334,2.704
			c-0.601-0.186-0.83,0.715-0.258,0.944c0.272,0.1,0.529,0.172,0.787,0.272c-0.014,0.043-0.043,0.057-0.057,0.115
			c-1.116,11.531-3.748,21.603-10.129,31.417c-0.401,0.615-0.014,1.188,0.529,1.374c-1.345,0.072-2.647,0.386-3.805,1.001
			c-0.486,0.258-0.143,1.059,0.386,0.901c2.461-0.773,4.893-0.858,7.311,0.143c2.132,0.887,4.592,3.105,5.065,5.594
			c-1.703-1.474-3.891-2.389-6.095-2.661c-0.401-0.043-0.501,0.658-0.1,0.73c2.561,0.401,4.507,1.617,6.123,3.605
			c0.014,0.029,0.029,0.029,0.057,0.043c-0.114,0.486-0.3,0.958-0.587,1.431c-0.186,0.272-0.386,0.529-0.587,0.758
			c-0.057-0.1-0.157-0.2-0.301-0.286c-0.644-0.401-1.116-1.145-1.731-1.617c-0.486-0.386-1.016-0.73-1.588-1.001
			c-1.116-0.544-2.346-0.844-3.591-0.83c-0.3,0.014-0.286,0.444,0,0.472c1.216,0.157,2.332,0.458,3.391,1.087
			c0.773,0.458,2.332,1.502,2.461,2.504c0.029,0.272,0.143,0.415,0.258,0.529c-3.62,2.16-9.929-0.029-13.491-1.059
			c0-0.1-0.014-0.215-0.057-0.329c-4.907-13.463-6.939-26.854-7.797-41.132c0-0.057-0.029-0.072-0.043-0.115
			c2.046-0.486,4.092-1.001,6.123-1.617c1.245-0.372,0.715-2.346-0.544-1.96c-26.095,7.854-53.149,3.863-76.798-9.299
			c-0.529-0.286-0.958,0.486-0.472,0.815c2.904,1.931,5.923,3.634,8.999,5.179c0,0.014-0.014,0.029-0.014,0.057
			c-0.415,12.418-6.181,22.461-12.518,32.791c-0.186,0.286-0.186,0.572-0.1,0.815c-1.488,0.229-2.904,0.715-4.063,1.459
			c-0.73,0.458-0.272,1.774,0.615,1.459c2.733-0.987,6.037-1.989,8.77-0.358c1.717,1.016,2.361,2.461,2.332,3.992
			c-1.817-1.788-4.435-2.59-6.939-2.003c-0.315,0.086-0.257,0.63,0.086,0.601c2.432-0.186,4.607,0.672,6.195,2.532
			c0.129,0.172,0.3,0.229,0.472,0.2c-0.3,1.159-0.916,2.289-1.717,3.262c-1.445-2.332-4.521-3.806-7.196-3.462
			c-0.386,0.057-0.401,0.572,0,0.615c2.876,0.315,4.693,1.602,6.295,3.82c-0.014,0.014-0.029,0.014-0.029,0.029
			c-5.208,4.807-11.359,1.516-15.895-2.175c0.129-0.157,0.229-0.358,0.243-0.615c1.102-18.241-6.123-32.29-16.996-46.325
			c-6.638-8.57-12.189-17.068-12.318-28.313c-0.129-10.258,2.618-21.059,7.068-30.273c2.59-5.351,6.166-10.329,10.458-14.664
			c0.329-0.086,0.558-0.343,0.658-0.658c10.458-10.229,24.922-16.639,39.615-15.351c16.453,1.459,30.001,19.042,47.169,12.49
			c-3.562,11.131,21.102,14.636,28.542,15.036c4.135,0.215,12.032,0.629,19.729-0.157c-4.764,3.562-5.909,10.587-1.545,15.465
			c4.02,4.478,15.065,4.721,16.496-1.845c1.76-2.032,2.575-4.807,1.888-7.754c-1.059-4.592-5.365-7.268-9.814-6.967
			c0-0.014,0.014-0.014,0.014-0.014C214.202,266.719,217.049,265.675,219.309,264.216z M224.431,283.959
			c0.086-0.544-0.558-0.815-0.873-0.372c-0.429,0.587-0.63,1.302-1.073,1.903c-0.472,0.615-1.044,1.116-1.702,1.545
			c-0.372,0.243-0.043,0.816,0.343,0.587c0.744-0.415,1.431-0.944,2.003-1.574C223.644,285.49,224.302,284.717,224.431,283.959z
			 M223.301,282.056c0.086-0.501-0.501-0.73-0.801-0.329c-0.701,0.944-1.116,1.974-2.003,2.818
			c-0.887,0.858-1.974,1.474-3.148,1.874c-0.429,0.143-0.257,0.801,0.186,0.687C219.81,286.52,222.843,284.56,223.301,282.056z
			 M218.207,351.93c0.143-0.587-0.744-0.844-0.916-0.258c-0.558,1.96-1.159,3.848-2.032,5.708c-0.186,0.415,0.415,0.787,0.629,0.372
			C216.863,355.907,217.721,353.962,218.207,351.93z M216.691,349.755c0.243-0.501-0.501-0.93-0.744-0.443
			c-0.486,1.03-0.916,2.089-1.402,3.133c-0.172,0.372,0.372,0.701,0.572,0.329C215.632,351.758,216.19,350.771,216.691,349.755z
			 M118.432,333.131c0.415,0.143,0.615-0.544,0.186-0.672c-2.561-0.715-5.107-1.474-7.654-2.232c-0.229-0.072-0.329,0.272-0.1,0.358
			C113.396,331.414,115.914,332.258,118.432,333.131z M114.999,334.633c0.501,0.1,0.715-0.658,0.215-0.758
			c-3.105-0.615-5.866-1.717-8.398-3.62c-0.2-0.143-0.444,0.172-0.257,0.329C109.004,332.559,111.894,334.032,114.999,334.633z
			 M60.204,279.266c0.601-0.215,0.243-1.102-0.343-0.815c-1.059,0.501-1.788,1.474-1.974,2.633c-0.057,0.4,0.529,0.572,0.63,0.172
			C58.716,280.325,59.303,279.595,60.204,279.266z M58.459,277.993c0.3-0.3-0.086-0.744-0.444-0.558
			c-1.731,0.873-2.346,3.162-2.003,4.95c0.071,0.3,0.587,0.229,0.544-0.086C56.37,280.482,57.214,279.223,58.459,277.993z"/>
		<path style="fill:#1D1D1B;" d="M223.558,283.587c0.315-0.444,0.959-0.172,0.873,0.372c-0.129,0.758-0.787,1.531-1.302,2.089
			c-0.572,0.629-1.259,1.159-2.003,1.574c-0.386,0.229-0.715-0.343-0.343-0.587c0.658-0.429,1.23-0.93,1.702-1.545
			C222.929,284.889,223.129,284.173,223.558,283.587z"/>
		<path style="fill:#1D1D1B;" d="M222.499,281.727c0.301-0.401,0.887-0.172,0.801,0.329c-0.458,2.504-3.491,4.464-5.766,5.05
			c-0.443,0.114-0.615-0.544-0.186-0.687c1.173-0.401,2.26-1.016,3.148-1.874C221.384,283.701,221.798,282.671,222.499,281.727z"/>
		<path style="fill:#59BFC7;" d="M222.399,253.371c2.504,15.065-26.224,13.921-34.408,13.634
			c-7.84-0.272-38.328-1.731-29.186-16.882c2.303,1.288,4.693,2.432,7.168,3.434c-1.044,0.701-2.074,1.416-3.105,2.146
			c-0.758,0.529-0.057,1.788,0.744,1.259c1.388-0.901,2.79-1.788,4.192-2.675c2.99,1.102,6.095,1.989,9.242,2.69
			c-1.288,1.359-2.504,2.747-3.648,4.163c-0.544,0.672,0.286,1.545,0.944,0.958c1.674-1.502,3.305-3.076,4.921-4.678
			c9.257,1.76,18.871,1.831,27.798,0.544C212.27,257.205,217.535,255.674,222.399,253.371z"/>
		<path style="fill:#F7BE29;" d="M218.479,272.714c1.316,2.246,1.273,4.736,0.272,6.781c-0.372-0.143-0.858,0.029-0.815,0.529
			c0.029,0.272,0.029,0.529,0.014,0.772c-0.973,1.245-2.346,2.232-4.02,2.69c-3.748,1.044-8.713-0.558-9.743-4.693
			c-0.887-3.591,1.474-8.255,4.779-10.129c0.1,0.186,0.272,0.329,0.529,0.286C212.943,268.565,216.605,269.509,218.479,272.714z"/>
		<path style="fill:#1D1D1B;" d="M217.292,351.673c0.172-0.587,1.059-0.329,0.916,0.258c-0.486,2.032-1.345,3.977-2.318,5.823
			c-0.215,0.415-0.815,0.043-0.629-0.372C216.133,355.521,216.734,353.633,217.292,351.673z"/>
		<path style="fill:#1D1D1B;" d="M215.947,349.312c0.243-0.487,0.987-0.057,0.744,0.443c-0.501,1.016-1.059,2.003-1.574,3.019
			c-0.2,0.372-0.744,0.043-0.572-0.329C215.031,351.401,215.461,350.342,215.947,349.312z"/>
		<path style="fill:#F7BE29;" d="M213.386,285.332c0.873-0.157,1.688-0.429,2.447-0.787c-1.846,1.373-4.55,1.888-6.696,1.617
			c-3.133-0.401-5.665-2.16-7.153-4.936c-2.575-4.807-0.329-10.158,3.934-12.876c0.286-0.043,0.572-0.072,0.858-0.115
			c-2.976,2.103-4.721,6.366-4.449,9.814C202.756,283.387,208.536,286.205,213.386,285.332z"/>
		<path style="fill:#1D1D1B;" d="M211.755,161.021c0.415,2.661-0.286,5.05-2.532,6.595c-0.472,0.329-0.93-0.358-0.572-0.744
			c3.863-4.278-0.172-9.056-1.717-13.262c-0.658-1.817-0.887-3.662,0.715-4.85c-5.322,2.861-13.806,5.866-14.421,12.704
			c1.817-1.23,3.82-2.132,5.937-2.761c1.459-0.429,3.477-1.087,4.95-0.358c2.203,1.102,1.702,3.076,0.472,4.635
			c0.93-0.229,1.889-0.186,2.704,0.329c1.059,0.658,1.917,2.346,1.273,3.505c-0.086,0.172-0.215,0.343-0.386,0.486
			c-0.443,0.386-1.302,0.029-1.059-0.615c0.358-1.016,0.229-1.989-0.873-2.504c-1.216-0.572-2.489,0.057-3.605,0.572
			c-0.172,0.1-0.329,0.2-0.486,0.272c-0.816,0.386-1.416-0.672-0.701-1.202c0.515-0.372,1.016-0.744,1.545-1.102
			c1.431-1.044,1.016-2.089-1.23-3.119c-0.715-0.114-1.888,0.386-2.589,0.572c-2.046,0.558-3.977,1.359-5.909,2.203
			c-0.143,0.057-0.257,0.043-0.358-0.014c-0.272,0.143-0.687,0.014-0.715-0.4c-0.472-8.026,9.299-11.546,15.079-14.607
			c0.787-0.415,1.459,0.701,0.773,1.173c0.601-0.129,1.13,0.701,0.63,1.188C206.304,151.98,211.297,158.131,211.755,161.021z"/>
		<path style="fill:#F9CDD0;" d="M206.934,153.61c1.545,4.206,5.58,8.985,1.717,13.262l-0.086-0.057
			c0.644-1.159-0.215-2.847-1.273-3.505c-0.815-0.515-1.774-0.558-2.704-0.329c1.23-1.559,1.731-3.534-0.472-4.635
			c-1.474-0.73-3.491-0.072-4.95,0.358c-2.117,0.63-4.12,1.531-5.937,2.761c0.615-6.839,9.099-9.843,14.421-12.704
			C206.047,149.948,206.276,151.794,206.934,153.61z"/>
		<path style="fill:#1D1D1B;" d="M202.127,224.228c0.629,0.93-0.873,1.788-1.502,0.873c-1.373-2.017-4.335-2.775-6.381-1.331
			c-1.974,1.416-2.232,3.977-1.517,6.109c0.229,0.701-0.758,1.016-1.116,0.472c-1.846-2.704-0.73-6.681,2.046-8.298
			C196.576,220.337,200.31,221.51,202.127,224.228z"/>
		<path style="fill:#1D1D1B;" d="M200.353,174.584c0.029,0.544-0.858,0.544-0.844,0c0.014-1.302-0.215-2.532-0.658-3.734
			c-0.129-0.315,0.401-0.544,0.544-0.229C199.966,171.88,200.281,173.196,200.353,174.584z"/>
		<path style="fill:#1D1D1B;" d="M196.576,168.776c0.916,1.645,1.517,3.534,1.488,5.422c0,0.529-0.787,0.515-0.815,0
			c-0.072-1.817-0.358-3.491-1.102-5.165C196.018,168.747,196.418,168.489,196.576,168.776z"/>
		<path style="fill:#1D1D1B;" d="M146.888,181.895c0.672,0.672-0.272,1.66-0.987,1.145c-2.561,0.2-6.738,0.186-8.498,2.103
			c-2.89,3.162,2.89,3.52,4.406,4.478c0.601,0.372,0.2,1.331-0.486,1.145c-0.186-0.043-0.386-0.1-0.601-0.143
			c-1.588,0.386-3.019,1.445-3.419,3.119s0.401,2.904,1.345,4.149c0.072,0.014,0.157,0.029,0.243,0.057
			c0.458,0.1,0.358,0.715-0.043,0.801c-0.186,0.286-0.601,0.444-0.916,0.272c-0.129-0.072-0.229-0.157-0.343-0.243
			c-3.491-0.1-7.196-1.159-9.385-4.006c-1.288-1.674-1.688-3.691-1.946-5.737c-0.472-3.62-1.116-6.667-2.632-10.043
			c-0.286-0.63,0.272-1.173,0.787-1.059c0.172,0.029,0.329,0.129,0.458,0.329c2.132,3.291,2.547,6.867,3.076,10.659
			c0.715,5.279,4.077,7.182,8.37,8.384c-0.701-1.359-0.787-3.119-0.229-4.464c0.529-1.273,1.588-2.217,2.818-2.69
			c-2.375-0.687-4.779-1.874-3.577-4.75c1.273-3.062,5.952-3.677,9.342-3.434c-5.708-4.65-12.862-4.278-20.029-4.249
			c-0.086,0-0.157-0.043-0.2-0.1c-0.115-0.143-0.1-0.415,0.129-0.443C132.281,176.129,141.008,176,146.888,181.895z"/>
		<path style="fill:#F9CDD0;" d="M144.671,181.966c-3.391-0.243-8.069,0.372-9.342,3.434c-1.202,2.876,1.202,4.063,3.577,4.75
			c-1.23,0.472-2.289,1.416-2.818,2.69c-0.558,1.345-0.472,3.105,0.229,4.464c-4.292-1.202-7.654-3.105-8.37-8.384
			c-0.529-3.791-0.944-7.368-3.076-10.659c-0.129-0.2-0.286-0.3-0.458-0.329l0.029-0.315c0.043,0.057,0.114,0.1,0.2,0.1
			C131.809,177.689,138.963,177.317,144.671,181.966z"/>
		<path style="fill:#1D1D1B;" d="M143.913,222.283c0.229,0.372-0.272,0.73-0.586,0.443c-1.302-1.188-1.402-3.434-0.773-4.993
			c0.072-0.2,0.386-0.129,0.329,0.1C142.453,219.593,143.04,220.809,143.913,222.283z"/>
		<path style="fill:#1D1D1B;" d="M141.323,222.268c0.072,0.343-0.415,0.587-0.587,0.243c-0.901-1.731-0.815-4.063-0.544-5.952
			c0.014-0.172,0.315-0.129,0.3,0.043c-0.072,1.03-0.043,2.031,0.143,3.047C140.808,220.537,141.151,221.381,141.323,222.268z"/>
		<path style="fill:#1D1D1B;" d="M118.618,332.459c0.429,0.129,0.229,0.815-0.186,0.672c-2.518-0.873-5.036-1.717-7.568-2.547
			c-0.229-0.086-0.129-0.429,0.1-0.358C113.511,330.985,116.058,331.743,118.618,332.459z"/>
		<path style="fill:#F09C26;" d="M115.514,338.625c-0.029,0.072-0.057,0.143-0.071,0.215c-1.23,9.943-3.777,18.441-7.139,27.784
			c-1.044,0.057-2.103,0.2-3.104,0.458c-1.145,0.301-0.644,1.974,0.486,1.76c2.804-0.544,5.823-0.587,8.198,1.273
			c1.188,0.93,1.946,2.289,2.218,3.691c-2.332-1.617-5.05-2.647-7.854-2.919c-0.386-0.043-0.472,0.587-0.1,0.672
			c3.09,0.701,5.651,2.003,7.969,4.106c-0.172,0.973-0.615,1.903-1.431,2.633c-2.332-1.702-5.107-2.575-7.983-2.747
			c-0.358-0.014-0.443,0.587-0.086,0.644c2.604,0.415,4.807,1.445,6.939,2.876c-4.206,2.261-10.101,0.687-14.149-1.259
			c1.374-2.647,1.846-6.266-0.501-8.441c-1.531-1.416-3.662-2.06-5.837-2.103c6.266-10.029,12.461-20.759,11.717-32.934
			C108.275,336.007,111.851,337.437,115.514,338.625z"/>
		<path style="fill:#1D1D1B;" d="M115.213,333.875c0.501,0.1,0.286,0.858-0.215,0.758c-3.105-0.601-5.994-2.074-8.441-4.049
			c-0.186-0.157,0.057-0.472,0.257-0.329C109.348,332.158,112.109,333.26,115.213,333.875z"/>
		<path style="fill:#F09C26;" d="M36.97,166.544c11.917-11.174,29.086,7.826,25.752,21.489
			c-2.589,10.616-11.417,19.185-15.151,29.586c-2.99,8.312-4.249,17.096,0.401,25.037c3.92,6.681,10.53,11.159,17.683,13.792
			c-1.416,1.474-2.747,3.033-4.006,4.678c-8.841-5.036-16.481-11.717-19.858-21.66c-3.806-11.159-0.529-20.358,4.406-30.402
			c2.804-5.708,4.464-11.56,2.962-17.926c-0.787-3.348-2.303-6.581-4.478-9.256c-3.076-3.777-11.775-8.341-7.797-14.836
			C36.984,166.859,36.999,166.687,36.97,166.544z M58.945,175.958c0.272,0.529,1.102,0.057,0.801-0.472
			c-1.073-1.931-2.389-3.82-4.02-5.322c-0.315-0.286-0.744,0.143-0.472,0.472C56.67,172.309,57.944,173.997,58.945,175.958z
			 M55.612,175.128c0.157,0.315,0.73,0.086,0.587-0.258c-0.83-2.117-2.132-4.063-3.548-5.823c-0.215-0.272-0.572,0.1-0.372,0.358
			C53.666,171.193,54.667,173.096,55.612,175.128z"/>
		<path style="fill:#1D1D1B;" d="M59.861,278.451c0.587-0.286,0.944,0.601,0.343,0.815c-0.901,0.329-1.488,1.059-1.688,1.989
			c-0.1,0.401-0.687,0.229-0.63-0.172C58.072,279.924,58.802,278.952,59.861,278.451z"/>
		<path style="fill:#1D1D1B;" d="M59.746,175.485c0.301,0.529-0.529,1.001-0.801,0.472c-1.001-1.96-2.275-3.648-3.691-5.322
			c-0.272-0.329,0.157-0.758,0.472-0.472C57.357,171.665,58.673,173.554,59.746,175.485z"/>
		<path style="fill:#1D1D1B;" d="M58.015,277.435c0.358-0.186,0.744,0.258,0.444,0.558c-1.245,1.23-2.089,2.489-1.903,4.306
			c0.043,0.315-0.472,0.386-0.544,0.086C55.669,280.597,56.284,278.308,58.015,277.435z"/>
		<path style="fill:#1D1D1B;" d="M56.198,174.87c0.143,0.343-0.429,0.572-0.587,0.258c-0.944-2.031-1.946-3.934-3.333-5.723
			c-0.2-0.257,0.157-0.629,0.372-0.358C54.067,170.807,55.368,172.753,56.198,174.87z"/>
		<path style="fill:#FCEA10;" d="M212.688,286.545c-4.298,0.466-8.51,1.178-11.481-2.927c-2.011-2.779-1.94-6.505-0.641-9.598
			c0.601,0.027,1.185,0.06,1.735,0.103c3.082,0.241,3.068-4.566,0-4.803c-15.936-1.232-40.536,4.711-45.702-16.261
			c-0.467-1.895-3.284-1.434-3.335,0.451c-0.024,0.885,0.007,1.723,0.072,2.532c-3.46,0.566-6.641,0.397-10.146-0.85
			c-0.595-0.212-1.103,0.126-1.378,0.604c-6.223-2.711-12.017-6.566-18.244-9.354c-7.548-3.379-15.772-4.947-24.04-4.43
			c-16.888,1.056-32.617,10.049-41.181,24.782c-8.522,14.66-9.336,32.436-2.478,47.868c4.208,9.469,10.569,17.759,15.014,27.102
			c5.495,11.548,5.644,23.012,7.187,35.388c0.259,2.08,3.181,2.801,3.853,0.521c4.933-16.741-3.127-35.283-11.541-49.438
			c-10.146-17.071-17.719-34.094-9.085-53.695c7.345-16.675,24.299-26.851,42.397-26.488c18.325,0.368,31.289,15.244,49.173,16.87
			c1.41,0.128,2.292-0.586,2.671-1.56c6.957,11.729,28.289,10.378,41.818,10.568c-1.992,3.857-1.714,8.697,1.125,12.34
			c3.309,4.247,10.8,6.639,15.344,3.022C214.88,288.454,214.032,286.4,212.688,286.545z"/>
		<path style="fill:#FCEA10;" d="M217.259,265.135c-0.71,0.057-1.319,0.109-1.966,0.444c-0.491,0.255-1.011,0.481-1.456,0.81
			c-0.666,0.493-0.766,1.82,0.261,1.999c1.205,0.211,2.434,0.191,3.565-0.266c0.702-0.284,1.211-0.865,1.09-1.669
			C218.649,265.759,218.025,265.073,217.259,265.135z"/>
		<path style="fill:#FCEA10;" d="M196.548,171.24c-0.653-1.32-2.918-0.714-2.812,0.762c0.247,3.414,0.344,6.438-2.284,9.072
			c-2.861,2.868-7.332,3.253-10.825,1.418c-0.679-0.357-1.266,0.022-1.469,0.554c-0.275,0.171-0.502,0.423-0.604,0.782
			c-1.051,3.704-5.348,4.643-7.642,1.327c-0.508-0.734-1.875-0.311-1.54,0.649c2.104,6.027,10.321,5.077,11.882-0.52
			c3.879,1.84,8.537,1.549,11.982-1.262C196.754,181.151,198.628,175.441,196.548,171.24z"/>
		<path style="fill:#FCEA10;" d="M185.787,161.645c-0.267-1.703-3.12-1.31-3.013,0.408c0.133,2.137,0.038,3.901-1.417,5.623
			c-0.892,1.056,0.485,2.474,1.529,1.529C184.945,167.342,186.223,164.432,185.787,161.645z"/>
		<path style="fill:#FCEA10;" d="M114.038,336.829c-7.174-1.227-13.898-3.704-20.148-7.429c-0.952-0.568-2.053,0.789-1.204,1.56
			c3.773,3.425,7.988,6.025,12.593,7.805c-1.947,5.247-3.324,10.463-6.127,15.452c-2.701,4.808-6.348,8.845-9.366,13.419
			c-0.598,0.905,0.564,1.954,1.445,1.445c1.135-0.655,2.247-1.428,3.328-2.295c0.024,0.005,0.038,0.019,0.063,0.023
			c2.263,0.37,4.037,1.517,5.347,3.404c0.564,0.812,0.966,1.703,1.185,2.667c0.093,0.412,0.024,1.027,0.183,1.402
			c0.079,0.187,0.101,0.302,0.105,0.382c-0.643,0.195-1.192,0.654-1.344,1.389c-0.018,0.086-0.036,0.171-0.053,0.257
			c-0.152,0.732-0.045,1.618,0.565,2.139c1.655,1.41,3.917,0.745,4.854-1.17c0.916-1.874,0.314-4.508-0.508-6.309
			c-1.504-3.292-4.598-5.71-8.139-6.196c6.578-6.353,11.634-16.105,12.791-24.608c1.085,0.284,2.184,0.539,3.308,0.738
			C115.578,341.375,116.712,337.286,114.038,336.829z"/>
		<path style="fill:#FCEA10;" d="M177.548,378.019c-1.625-5.007-3.057-10.063-4.137-15.224c-0.769-3.674-5.068-18.966-2.027-20.844
			c-0.003-0.005-0.007-0.009-0.01-0.014c1.66-1.007,0.694-3.999-1.4-3.333c-0.831,0.264-1.483,0.671-2.018,1.165
			c-0.385,0.221-0.769,0.442-1.154,0.662c-0.998,0.304-1.139,1.707-0.498,2.281c-0.789,3.162,0.071,7.321,0.36,10.15
			c1.028,10.043,3.507,19.922,6.76,29.461c0.674,1.978,3.742,2.795,4.813,0.629l0.804-1.626
			C179.685,380.022,178.818,378.307,177.548,378.019z"/>
		<path style="fill:#FCEA10;" d="M209.589,337.457c-3.179,1.907-7.34,2.399-10.967,2.625c-0.556,0.035-0.932,0.301-1.167,0.649
			c-0.5,0.099-0.918,0.577-0.821,1.241c1.181,8.14,3.663,15.874,4.109,24.155c0.249,4.619-1.839,11.542,0.37,15.635
			c0.56,1.038,1.764,1.363,2.843,1.157c0.278-0.053,0.557-0.106,0.835-0.16c1.06-0.203,1.743-1.331,1.778-2.335
			c0.008-0.231,0.016-0.462,0.024-0.693c0.034-0.999-0.455-1.661-1.128-1.989c0.005-0.287,0.023-0.749,0.19-1.553
			c0.4-1.92,0.206-4.312,0.179-6.289c-0.042-3.156-0.278-6.312-0.715-9.439c-0.841-6.014-2.304-12.11-5.402-17.358
			c3.797,0.062,7.311-0.674,11.105-1.104C215.036,341.525,212.831,335.512,209.589,337.457z"/>
		<path style="fill:#FCEA10;" d="M63.015,258.148c-8.035-6.058-20.045-13.679-20.771-24.769c-0.626-9.562,5.926-18.036,9.002-26.69
			c2.104-5.918,3.121-12.417,0.571-18.371c-1.103-2.575-2.846-4.783-4.645-6.903c-0.829-0.977-11.483-13.591-6.461-13.809
			c2.673-0.116,2.701-4.145,0-4.175c-7.713-0.084-5.989,8.522-3.154,12.952c2.833,4.427,7.403,7.576,9.922,12.215
			c3.902,7.186,1.012,15.235-2.053,22.118c-3.931,8.83-9.492,18.617-5.747,28.504c3.515,9.278,13.665,16.713,22.384,20.555
			C63.181,260.269,63.988,258.881,63.015,258.148z"/>
	</g>
	<g>
		<path style="fill:#1D1D1B;" d="M466.697,257.566c3.562,3.949-3.949,10.887-8.069,14.564c1.631-0.143,3.248-0.415,4.836-0.858
			c0.801-0.186,1.459,0.644,1.059,1.373c-1.03,1.917-2.132,3.705-3.577,5.351c-0.916,1.03-1.917,1.989-3.004,2.847
			c-0.501,0.315-0.186,0.401,0.944,0.272c0.844,1.302,3.305-0.386,3.691,2.303c0.887,6.137-12.919,7.654-16.539,7.525
			c-0.071,0-0.129-0.029-0.186-0.043c-0.043,1.316-0.1,2.647-0.229,4.034c-1.102,12.633-3.076,25.28-6.409,37.527
			c-3.305,12.132-8.012,23.978-14.693,34.665c-2.547,4.063-5.408,9.056-9.972,11.116c-4.478,2.017-10.272,1.674-15.036,2.031
			c-14.636,1.102-29.286,1.931-43.965,2.489c-8.255,0.329-23.406,3.92-27.369-6.238c-0.486-1.245-0.816-2.432-1.001-3.577
			c-1.374,5.336-6.138,6.91-11.159,8.684c-6.066,2.132-16.023,4.922-23.034,2.661c-0.215,0.157-0.529,0.043-0.572-0.215
			c-1.674-0.615-3.162-1.559-4.349-2.876l-0.83-0.086c0.157-0.114,0.329-0.229,0.486-0.343c-1.059-1.302-1.874-2.933-2.346-5.007
			c-1.474-6.552,1.23-12.847,5.68-17.826c-0.029-0.072-0.072-0.143-0.086-0.229c-3.262-22.161,2.332-45.238,9.457-66.183
			c0.043-0.143,0.157-0.2,0.272-0.229c-1.073-1.245-2.089-2.532-3.004-3.92c-1.617-2.432-2.547-5.193-4.063-7.64
			c-0.916-1.517-0.014-1.788-1.273-1.488c-0.658,0.157-2.203,4.235-2.547,4.922c-0.258,0.487-1.044,0.487-1.302,0
			c-2.489-4.864-4.363-9.843-5.279-15.251c-0.844-4.936,0.1-4.478-3.734-1.574c-0.372,0.272-0.887-0.114-0.901-0.515
			c-0.072-5.451,0.143-10.802,0.801-16.21c0.057-0.386,0.658-0.401,0.629,0c-0.186,3.147-0.358,6.295-0.386,9.442
			c-0.029,3.562-0.772,7.439,3.019,2.189c0.4-0.558,1.245-0.358,1.302,0.358c0.329,4.464,1.03,8.842,2.475,13.091
			c2.647,7.854,3.162,5.537,5.809,0.286c0.329-0.644,1.259-0.415,1.459,0.186c2.99,8.927,8.226,16.167,15.58,21.989
			c0.558,0.444,0.114,1.288-0.444,1.431c-0.186,0.057-0.386,0.029-0.572-0.115c-2.618-2.017-5.007-4.263-7.168-6.724
			c-4.092,21.789-10.787,42.09-8.398,64.466c3.734-3.605,8.355-6.352,12.704-7.783c0.129-0.043,0.229-0.043,0.343-0.043
			c-3.92-16.195-2.704-33.378,3.519-48.829c-0.644,0.229-0.801-0.73-0.415-0.944c0.086-0.043,0.2-0.057,0.329-0.014
			c0.186,0.057,0.157,0.257,0.029,0.343c0.115,0.014,0.186,0.057,0.229,0.157c0.014-0.043,0.029-0.072,0.043-0.1
			c0.472-1.173,2.389-0.658,1.903,0.529c-6.695,16.253-6.753,32.948-4.263,50.102c0.086,0.515-0.472,0.801-0.801,0.587
			c-0.1,0.086-0.215,0.157-0.358,0.215c-7.067,2.69-13.305,7.268-16.682,14.235c-2.189,4.478-2.303,8.927-0.658,12.304
			c0.286-1.445,1.073-2.961,1.617-4.12c1.173-2.504,2.747-4.85,4.678-6.824c0.572-0.601,1.416,0.286,0.887,0.887
			c-1.488,1.717-2.876,3.462-3.992,5.451c-0.572,1.03-1.073,2.089-1.517,3.176c-0.2,0.501-0.386,1.016-0.572,1.531
			c-0.372,0.572-0.343,1.13,0.114,1.688c0.115-0.1,0.272,0.043,0.172,0.172c-0.029,0.029-0.043,0.043-0.072,0.072
			c0.901,1.073,2.06,1.96,3.434,2.618c1.974-4.135,5.079-7.897,8.813-10.444c0.587-0.4,1.331,0.544,0.773,0.987
			c-3.577,2.89-6.381,6.023-8.67,9.857c1.674,0.629,3.62,0.959,5.866,0.887c5.98-0.215,12.146-2.275,17.655-4.492
			c5.923-2.403,6.91-4.85,7.425-10.73c0.272-3.133,0.486-6.266,0.787-9.385c2.489-25.666,7.954-50.746,16.667-75.01
			c0.2-0.544,1.059-0.315,0.887,0.243c-6.166,20.473-10.987,41.532-13.777,62.735c-0.787,6.066-0.873,12.447-1.445,18.642
			c5.708-11.088,27.769-14.951,39.215-14.965c-29.271-22.705-7.096-71.677,27.884-72.578c0.615-0.014,0.773,0.987,0.157,1.087
			c-15.981,2.389-30.459,12.204-36.482,27.612c-6.195,15.88-1.116,33.335,12.089,43.793c1.016,0.801-0.315,2.475-1.359,1.774
			c-0.186-0.129-0.358-0.272-0.529-0.401c-12.518,0.2-38.843,3.548-39.944,19.586c-0.73,10.558,10.244,10.472,17.912,10.215
			c7.339-0.229,14.679-0.544,22.004-0.93c6.424-0.329,12.833-0.715,19.243-1.159c7.282-0.501,16.138,0.072,23.162-2.003
			c6.653-1.974,10.244-9.485,13.391-15.094c3.505-6.238,6.395-12.805,8.756-19.557c4.278-12.175,6.882-24.894,8.513-37.684
			c1.76-13.892,2.547-26.238-5.923-38.142c-7.554-10.63-16.181-20.029-28.141-25.58c-6.524-3.019-13.305-6.166-20.43-7.511
			c-7.74-1.445-15.623-0.472-23.377,0.372c-0.558,0.072-0.916-0.215-1.059-0.601c-0.529,0.129-1.116-0.072-1.288-0.758
			c-1.545-6.152-0.401-12.275-2.804-18.37c-1.073-2.718-6.238-13.963-10.401-16.996l0.687-0.63c3.176,1.717,6.08,7.096,7.611,9.328
			c2.489,3.677,4.65,7.697,5.708,12.046c1.102,4.507,0.444,9.113,1.288,13.649c0.086-0.029,0.157-0.072,0.258-0.086
			c7.969-0.987,16.095-1.903,24.064-0.401c6.595,1.245,12.847,4.106,18.942,6.839c12.518,5.608,20.73,13.935,28.957,24.751
			c1.631,2.16,3.019,4.278,4.206,6.395c7.082-8.098,12.146-17.168,14.908-27.641c0.243-0.916,1.502-0.844,1.788,0
			c1.059,3.248,1.917,6.495,2.375,9.886c0.186,1.416-0.157,4.807,0.429,6.18c1.288,3.033,2.446,1.76,5.408,0.072
			C465.911,257.223,466.426,257.266,466.697,257.566z M463.765,263.332c0.744-1.474,2.532-2.117,0.358-2.962
			c-0.544-0.2-4.006,1.402-4.736,1.602c-0.572,0.157-1.216-0.286-1.188-0.901c0.229-5.608-0.358-10.93-1.76-16.267
			c-3.047,9.557-8.026,18.027-15.208,25.151c3.147,6.009,4.578,12.118,4.635,19.142c0.057,0,0.1-0.029,0.172-0.029
			c1.974,0.072,11.159-0.072,12.089-2.876c0.959-2.919-1.402-3.305-3.004-4.006c-0.701-0.301-0.501-1.245,0-1.617
			c2.847-2.031,4.936-4.263,6.724-7.068c-1.903,0.329-3.763,0.529-5.766,0.601c-0.815,0.029-1.245-1.059-0.658-1.602
			C458.113,269.927,462.048,266.722,463.765,263.332z"/>
		<path style="fill:#936037;" d="M464.122,260.37c2.175,0.844,0.386,1.488-0.358,2.962c-1.717,3.391-5.651,6.595-8.341,9.171
			c-0.587,0.544-0.157,1.631,0.658,1.602c2.003-0.072,3.863-0.272,5.766-0.601c-1.788,2.804-3.877,5.036-6.724,7.068
			c-0.501,0.372-0.701,1.316,0,1.617c1.602,0.701,3.963,1.087,3.004,4.006c-0.93,2.804-10.115,2.947-12.089,2.876
			c-0.071,0-0.114,0.029-0.172,0.029c-0.057-7.025-1.488-13.134-4.635-19.142c7.182-7.125,12.161-15.594,15.208-25.151
			c1.402,5.336,1.989,10.658,1.76,16.267c-0.029,0.615,0.615,1.059,1.188,0.901C460.116,261.772,463.579,260.17,464.122,260.37z
			 M453.206,262.301c0.315-0.572-0.601-1.073-0.858-0.501c-0.758,1.76-2.032,3.162-3.663,4.163
			c-0.386,0.229-0.043,0.815,0.343,0.601C450.817,265.563,452.219,264.076,453.206,262.301z M450.288,260.842
			c0.229-0.486-0.458-0.916-0.73-0.429c-1.087,1.974-2.089,4.077-2.976,6.152c-0.129,0.329,0.3,0.601,0.486,0.286
			C448.228,264.92,449.329,262.874,450.288,260.842z"/>
		<path style="fill:#1D1D1B;" d="M452.348,261.801c0.257-0.572,1.173-0.072,0.858,0.501c-0.987,1.774-2.389,3.262-4.178,4.263
			c-0.386,0.215-0.73-0.372-0.343-0.601C450.316,264.962,451.59,263.56,452.348,261.801z"/>
		<path style="fill:#1D1D1B;" d="M449.558,260.413c0.272-0.486,0.959-0.057,0.73,0.429c-0.958,2.031-2.06,4.077-3.219,6.009
			c-0.186,0.315-0.615,0.043-0.486-0.286C447.469,264.49,448.471,262.387,449.558,260.413z"/>
		<path style="fill:#936037;" d="M436.439,266.479c8.47,11.903,7.683,24.25,5.923,38.142c-1.631,12.79-4.235,25.509-8.513,37.684
			c-2.361,6.753-5.25,13.32-8.756,19.557c-3.148,5.608-6.738,13.119-13.391,15.094c-7.025,2.074-15.88,1.502-23.162,2.003
			c-6.41,0.443-12.819,0.83-19.243,1.159c-7.325,0.386-14.664,0.701-22.004,0.93c-7.668,0.257-18.642,0.343-17.912-10.215
			c1.102-16.038,27.426-19.386,39.944-19.586c0.172,0.129,0.343,0.272,0.529,0.401c1.044,0.701,2.375-0.973,1.359-1.774
			c-13.205-10.458-18.284-27.912-12.089-43.793c6.023-15.408,20.502-25.223,36.482-27.612c0.615-0.1,0.458-1.102-0.157-1.087
			c-34.98,0.901-57.155,49.873-27.884,72.578c-11.445,0.014-33.506,3.877-39.215,14.965c0.572-6.195,0.658-12.576,1.445-18.642
			c2.79-21.203,7.611-42.262,13.777-62.735c0.172-0.558-0.687-0.787-0.887-0.243c-8.713,24.264-14.178,49.344-16.667,75.01
			c-0.3,3.119-0.515,6.252-0.787,9.385c-0.515,5.88-1.502,8.327-7.425,10.73c-5.508,2.218-11.674,4.278-17.655,4.492
			c-2.246,0.072-4.192-0.258-5.866-0.887c2.289-3.834,5.093-6.967,8.67-9.857c0.558-0.444-0.186-1.388-0.773-0.987
			c-3.734,2.547-6.839,6.309-8.813,10.444c-1.374-0.658-2.532-1.545-3.434-2.618c0.029-0.029,0.043-0.043,0.072-0.072
			c0.1-0.129-0.057-0.272-0.172-0.172c-0.458-0.558-0.486-1.116-0.114-1.688c0.186-0.515,0.372-1.03,0.572-1.531
			c0.444-1.087,0.944-2.146,1.517-3.176c1.116-1.989,2.504-3.734,3.992-5.451c0.529-0.601-0.315-1.488-0.887-0.887
			c-1.931,1.974-3.505,4.321-4.678,6.824c-0.544,1.159-1.331,2.675-1.617,4.12c-1.645-3.376-1.531-7.826,0.658-12.304
			c3.376-6.967,9.614-11.546,16.682-14.235c0.143-0.057,0.258-0.129,0.358-0.215c0.329,0.215,0.887-0.072,0.801-0.587
			c-2.489-17.154-2.432-33.85,4.263-50.102c0.487-1.187-1.431-1.703-1.903-0.529c-0.014,0.029-0.029,0.057-0.043,0.1
			c-0.043-0.1-0.114-0.143-0.229-0.157c0.129-0.086,0.157-0.286-0.029-0.343c-0.129-0.043-0.243-0.029-0.329,0.014l-0.014-0.029
			c0.558-0.143,1.001-0.987,0.444-1.431c-7.354-5.823-12.59-13.062-15.58-21.989c-0.2-0.601-1.13-0.83-1.459-0.186
			c-2.647,5.251-3.162,7.568-5.809-0.286c-1.445-4.249-2.146-8.627-2.475-13.091c-0.057-0.715-0.901-0.916-1.302-0.358
			c-3.791,5.25-3.047,1.373-3.019-2.189c0.029-3.147,0.2-6.295,0.386-9.442c0.029-0.401-0.572-0.386-0.629,0
			c-0.658,5.408-0.873,10.759-0.801,16.21c0.014,0.401,0.529,0.787,0.901,0.515c3.834-2.904,2.89-3.362,3.734,1.574
			c0.916,5.408,2.79,10.387,5.279,15.251c0.258,0.487,1.044,0.487,1.302,0c0.343-0.687,1.888-4.764,2.547-4.922
			c1.259-0.3,0.358-0.029,1.273,1.488c1.517,2.447,2.447,5.208,4.063,7.64c0.916,1.388,1.931,2.675,3.004,3.92
			c-0.114,0.029-0.229,0.086-0.272,0.229c-7.125,20.945-12.719,44.022-9.457,66.183c0.014,0.086,0.057,0.157,0.086,0.229
			c-4.449,4.979-7.153,11.274-5.68,17.826c0.472,2.074,1.288,3.705,2.346,5.007c-0.157,0.115-0.329,0.229-0.486,0.343
			c-7.497,5.293-19.686,14.621-27.197,4.793c-0.172-0.243-0.329-0.472-0.486-0.715c0.258-4.321,2.647-7.869,6.038-10.845
			c0.501-0.443-0.143-1.23-0.687-0.901c-3.748,2.146-5.737,6.266-6.066,10.473c-4.578-9.643,6.481-23.22,15.966-24.479
			c1.273-0.172,1.359-2.16,0-2.074c-0.143,0.014-0.286,0.043-0.444,0.057c-2.79-14.922-1.102-28.327,1.502-43.106
			c2.26-12.833-3.663-20.516-7.254-32.29c-3.934-12.933-3.147-26.725-1.76-39.987c1.302-12.475,2.361-25.595,9.886-36.082
			c2.389,1.702,5.322,2.919,8.584,3.734c-4.635,2.074-8.212,6.853-8.212,11.96c0.014,2.418,0.815,4.607,2.132,6.452
			c4.049,8.026,14.35,12.919,22.161,6.266c7.096-6.066,7.439-19.042-1.374-23.205c9.342-0.1,18.656-1.674,24.178-2.947
			c8.169-1.874,18.155-5.136,24.736-11.188c4.163,3.033,9.328,14.278,10.401,16.996c2.404,6.095,1.259,12.218,2.804,18.37
			c0.172,0.687,0.758,0.887,1.288,0.758c0.143,0.386,0.501,0.672,1.059,0.601c7.754-0.844,15.637-1.817,23.377-0.372
			c7.125,1.345,13.906,4.492,20.43,7.511C420.258,246.45,428.885,255.849,436.439,266.479z M429.085,264.09
			c0.243,0.486,1.001,0.143,0.858-0.358c-0.916-3.119-3.162-6.509-5.68-8.57c-0.315-0.243-0.672,0.129-0.429,0.429
			c1.087,1.388,2.232,2.675,3.147,4.206C427.812,261.171,428.398,262.645,429.085,264.09z M427.869,268.024
			c0.3,0.515,1.001,0.057,0.773-0.458c-1.302-3.047-3.963-5.594-6.753-7.296c-0.386-0.229-0.73,0.358-0.358,0.601
			C424.378,262.716,426.195,265.134,427.869,268.024z M338.123,208.508c0.386-0.315-0.1-0.901-0.515-0.672
			c-1.931,1.102-3.705,2.375-5.751,3.29c-0.358,0.157-0.1,0.787,0.258,0.63C334.189,210.883,336.378,209.953,338.123,208.508z
			 M335.519,207.664c0.672-0.243,0.272-1.216-0.372-0.901c-2.046,1.016-4.12,1.917-6.195,2.833c-0.329,0.143-0.086,0.73,0.243,0.587
			C331.299,209.309,333.388,208.437,335.519,207.664z M311.885,333.649c0.1-0.629-0.801-0.758-0.873-0.114
			c-0.215,1.76-0.429,3.519-0.644,5.265c-0.057,0.358,0.544,0.429,0.601,0.086C311.269,337.14,311.57,335.394,311.885,333.649z
			 M309.223,342.848c0.157,0.272,0.544,0.029,0.415-0.243c-1.602-3.362-1.23-6.51-0.072-9.9c0.143-0.458-0.529-0.715-0.773-0.315
			C306.92,335.595,307.464,339.729,309.223,342.848z M271.854,381.906c0.744-0.372,0.2-1.445-0.544-1.288
			c-3.233,0.687-7.826,4.592-7.997,8.112c-0.014,0.172,0.215,0.258,0.343,0.143c1.23-1.288,1.989-2.89,3.319-4.12
			C268.449,383.408,270.109,382.778,271.854,381.906z"/>
		<path style="fill:#1D1D1B;" d="M429.944,263.732c0.143,0.501-0.615,0.844-0.858,0.358c-0.687-1.445-1.273-2.919-2.103-4.292
			c-0.916-1.531-2.06-2.818-3.147-4.206c-0.243-0.3,0.115-0.672,0.429-0.429C426.782,257.223,429.028,260.613,429.944,263.732z"/>
		<path style="fill:#1D1D1B;" d="M428.642,267.566c0.229,0.515-0.472,0.973-0.773,0.458c-1.674-2.89-3.491-5.308-6.338-7.153
			c-0.372-0.243-0.029-0.83,0.358-0.601C424.679,261.972,427.34,264.519,428.642,267.566z"/>
		<path style="fill:#1D1D1B;" d="M383.118,132.253c6.195,15.365,0.343,33.664-15.766,39.987c-6.195,2.432-12.604,2.432-18.413,0.615
			c5.336,5.866,8.613,13.119,3.262,20.544c-0.758,1.073-1.631,2.06-2.575,3.004l-0.687,0.63
			c-6.581,6.052-16.567,9.314-24.736,11.188c-5.522,1.273-14.836,2.847-24.178,2.947c8.813,4.163,8.47,17.139,1.374,23.205
			c-7.811,6.653-18.112,1.76-22.161-6.266c-1.316-1.846-2.117-4.035-2.132-6.452c0-5.107,3.577-9.886,8.212-11.96
			c-3.262-0.815-6.195-2.032-8.584-3.734c-7.525,10.487-8.584,23.606-9.886,36.082c-1.388,13.262-2.175,27.054,1.76,39.987
			c3.591,11.774,9.514,19.457,7.254,32.29c-2.604,14.779-4.292,28.184-1.502,43.106c0.157-0.014,0.3-0.043,0.444-0.057
			c1.359-0.086,1.273,1.903,0,2.074c-9.485,1.259-20.545,14.836-15.966,24.479c0.329-4.206,2.318-8.326,6.066-10.473
			c0.544-0.329,1.188,0.458,0.687,0.901c-3.391,2.976-5.78,6.524-6.038,10.845c0.157,0.243,0.315,0.472,0.486,0.715
			c7.511,9.829,19.7,0.501,27.197-4.793l0.83,0.086c-5.751,8.584-20.802,15.48-28.714,7.511c-0.114-0.014-0.2-0.072-0.229-0.215
			c-0.014,0-0.014-0.014-0.014-0.029c-0.858-0.916-1.645-2.017-2.303-3.334c-5.179-10.272,5.007-24.736,15.594-27.369
			c-2.432-12.933-2.232-25.766,0.358-38.671c1.044-5.165,2.203-10.229,1.459-15.508c-0.63-4.492-2.518-8.455-4.349-12.576
			c-2.432-5.479-4.249-11.045-5.208-16.982c-2.146-13.491-0.558-27.269,1.202-40.703c1.316-10.101,3.119-20.173,9.972-28.041
			c-3.176-2.589-5.193-6.195-5.379-11.159c-8.112-2.189-15.537-6.61-21.403-12.976c-10.315-4.092-21.446-14.35-17.154-25.509
			c0.744-1.917,1.931-3.505,3.448-4.836c-9.156-6.967-3.677-22.304,0.143-30.788c5.522-12.232,12.833-26.01,27.283-28.528
			c0.2-0.029,0.358,0.014,0.472,0.114c3.663-4.321,8.183-7.797,13.892-9.915c19.314-7.153,46.926-5.365,61.304,10.787
			c0.272-0.286,0.672-0.458,1.188-0.3C358.582,98.132,375.664,113.726,383.118,132.253z M382.631,150.938
			c2.175-9.142-1.316-18.17-6.109-25.867c-8.584-13.849-21.331-25.108-36.94-30.187c0.043,0.172,0.014,0.358-0.115,0.529
			c-9.543,12.833-11.073,31.518-9.872,47.041c0.758,9.872,4.421,19.486,13.162,24.908c0.715,0.443,1.459,0.844,2.218,1.216
			c0.587-0.658,1.931-0.157,1.946,0.901c6.209,2.532,13.262,2.818,19.572,0.3C374.505,166.604,380.628,159.322,382.631,150.938z
			 M344.447,197.535c5.122-3.491,9.185-8.298,7.726-14.893c-0.873-3.934-3.262-6.753-6.052-9.471
			c-5.851,20.316-30.702,25.28-49.315,20.144c-2.776,0.958-5.594,1.631-8.327,1.989c-5.751,0.773-11.46,0.443-16.882-0.873
			c1.574,9.371,10.201,13.134,20.187,14.221c0.401,0.014,0.801,0.057,1.202,0.114c10.186,0.887,21.546-0.844,28.213-2.175
			C329.31,204.974,337.565,202.228,344.447,197.535z M337.422,95.17c-0.029-0.043-0.072-0.057-0.115-0.1
			c-7.797-9.299-19.142-13.334-30.974-14.264c-11.46-0.887-25.523,0-35.295,6.667c-12.189,8.326-17.44,25.466-19.285,39.329
			c-0.973,7.211-1.645,14.893-8.069,19.4c-0.229,0.172-0.458,0.072-0.601-0.1c-0.472,0.358-0.959,0.715-1.431,1.073
			c9.285-3.491,22.376-2.818,29.386-1.903c11.088,1.445,24.493,9.957,17.268,22.662c-6.395,11.259-20.473,16.066-32.777,14.75
			c-0.129,0.1-0.286,0.172-0.501,0.143c-1.188-0.172-2.461-0.486-3.748-0.887c19.572,16.624,59.573,17.054,65.568-13.234
			c0.229-1.173,2.146-0.901,2.074,0.272c-0.744,11.231-9.628,19.271-19.729,23.434c18.17,2.074,40.288-0.944,45.138-21.446
			c-7.368-3.763-13.262-10.558-15.68-18.928c-2.99-10.387-1.946-22.204-0.529-32.777C329.31,110.421,331.714,102.095,337.422,95.17z
			 M303.458,218.68c1.259,7.225-4.235,14.464-11.503,15.179c-3.062,0.3-6.223-0.529-8.841-2.16
			c3.519,3.491,8.269,5.408,13.606,3.634c8.47-2.818,11.159-15.466,4.893-21.188C302.514,215.476,303.158,216.992,303.458,218.68z
			 M291.655,231.599c5.78-0.472,10.086-5.994,9.657-11.703c-0.343-4.793-4.249-8.098-8.641-8.999
			c-0.73-0.057-1.459-0.143-2.189-0.229c-0.658-0.014-1.316,0.014-1.96,0.129c-0.172,0.029-0.329,0-0.472-0.057
			c-4.278,1.617-7.811,4.478-8.57,9.528C278.421,227.25,285.288,232.129,291.655,231.599z M283.171,170.495
			c5.394-5.909,6.367-14.092-1.116-19.085c-4.592-3.062-10.573-3.734-15.938-4.049c-7.468-0.415-30.359-0.687-32.29,9.929
			c-1.731,9.414,5.623,16.739,13.634,21.102c0.072-0.057,0.172-0.1,0.3-0.043c2.06,1.03,4.135,1.731,6.352,2.117
			c0.272-0.257,0.644-0.415,1.087-0.358C265.431,181.497,276.103,178.221,283.171,170.495z M255.015,105.428
			c1.931-4.549,4.278-8.841,7.196-12.576c-10.959,3.362-17.182,12.633-22.147,22.476c-4.564,9.013-12.89,25.895-3.19,34.265
			c0.744-0.515,1.545-0.973,2.389-1.388c1.846-1.688,3.734-3.305,5.666-4.907c3.877-5.351,4.077-12.018,4.907-18.57
			C250.68,118.076,252.383,111.594,255.015,105.428z"/>
		<path style="fill:#683C11;" d="M376.522,125.071c4.793,7.697,8.284,16.725,6.109,25.867c-2.003,8.384-8.126,15.666-16.138,18.842
			c-6.309,2.518-13.362,2.232-19.572-0.3c-0.014-1.059-1.359-1.559-1.946-0.901c-0.758-0.372-1.502-0.773-2.218-1.216
			c-8.741-5.422-12.404-15.036-13.162-24.908c-1.202-15.523,0.329-34.207,9.872-47.041c0.129-0.172,0.157-0.358,0.115-0.529
			C355.191,99.963,367.938,111.223,376.522,125.071z M373.06,161.668c0.372-0.515-0.415-0.987-0.83-0.63
			c-2.618,2.16-4.893,3.748-8.341,4.292c-0.443,0.072-0.343,0.83,0.114,0.801C367.294,165.846,371.029,164.401,373.06,161.668z
			 M370.013,159.508c0.701-0.472-0.043-1.459-0.715-0.916c-1.688,1.373-3.519,2.504-5.494,3.419c-0.372,0.186-0.1,0.844,0.286,0.687
			C366.193,161.868,368.167,160.81,370.013,159.508z"/>
		<path style="fill:#1D1D1B;" d="M372.23,161.038c0.415-0.358,1.202,0.115,0.83,0.63c-2.032,2.733-5.766,4.178-9.056,4.464
			c-0.458,0.029-0.558-0.73-0.114-0.801C367.337,164.787,369.612,163.199,372.23,161.038z"/>
		<path style="fill:#1D1D1B;" d="M369.297,158.592c0.672-0.544,1.416,0.443,0.715,0.916c-1.846,1.302-3.82,2.361-5.923,3.19
			c-0.386,0.157-0.658-0.501-0.286-0.687C365.778,161.096,367.609,159.965,369.297,158.592z"/>
		<path style="fill:#E93842;" d="M352.172,182.642c1.459,6.595-2.604,11.402-7.726,14.893c-6.882,4.693-15.137,7.439-23.249,9.056
			c-6.667,1.331-18.026,3.062-28.213,2.175c-0.401-0.057-0.801-0.1-1.202-0.114c-9.986-1.087-18.613-4.85-20.187-14.221
			c5.422,1.316,11.131,1.645,16.882,0.873c2.733-0.358,5.551-1.03,8.327-1.989c18.613,5.136,43.464,0.172,49.315-20.144
			C348.91,175.889,351.3,178.707,352.172,182.642z"/>
		<path style="fill:#1D1D1B;" d="M337.608,207.836c0.415-0.229,0.901,0.358,0.515,0.672c-1.745,1.445-3.934,2.375-6.009,3.248
			c-0.358,0.157-0.615-0.472-0.258-0.63C333.903,210.211,335.677,208.937,337.608,207.836z"/>
		<path style="fill:#936037;" d="M337.308,95.07c0.043,0.043,0.086,0.057,0.115,0.1c-5.708,6.924-8.112,15.251-9.299,24.092
			c-1.416,10.573-2.461,22.39,0.529,32.777c2.418,8.369,8.312,15.165,15.68,18.928c-4.85,20.501-26.968,23.52-45.138,21.446
			c10.101-4.163,18.985-12.204,19.729-23.434c0.072-1.173-1.846-1.445-2.074-0.272c-5.995,30.287-45.996,29.858-65.568,13.234
			c1.288,0.401,2.561,0.715,3.748,0.887c0.215,0.029,0.372-0.043,0.501-0.143c12.304,1.316,26.382-3.491,32.777-14.75
			c7.225-12.704-6.181-21.217-17.268-22.662c-7.01-0.916-20.101-1.588-29.386,1.903c0.472-0.358,0.959-0.715,1.431-1.073
			c0.143,0.172,0.372,0.272,0.601,0.1c6.424-4.507,7.096-12.189,8.069-19.4c1.846-13.863,7.096-31.003,19.285-39.329
			c9.772-6.667,23.835-7.554,35.295-6.667C318.165,81.736,329.51,85.771,337.308,95.07z M325.633,88.804
			c0.501,0.257,0.93-0.472,0.443-0.772c-2.346-1.474-5.122-2.16-7.854-2.332c-0.429-0.029-0.415,0.615,0,0.658
			C320.912,86.629,323.244,87.545,325.633,88.804z M323.716,92.624c0.544,0.329,1.059-0.587,0.487-0.844
			c-1.788-0.858-3.548-1.817-5.322-2.733c-0.415-0.215-0.787,0.415-0.372,0.644C320.254,90.664,322.014,91.594,323.716,92.624z
			 M300.554,139.192c2.303-0.758,1.717-4.321,1.345-6.138c-0.444-2.146-1.76-4.278-3.934-4.964
			c-5.007-1.602-10.301,4.993-8.927,9.614c0.2,0.658,1.302,0.572,1.259-0.172c-0.186-3.047,2.275-7.096,5.551-7.525
			c1.774-0.229,3.047,0.773,3.691,2.389c0.215,0.544,0.958,3.691,0.458,4.678c-0.63,0.1-1.173,0.758-0.73,1.416
			c0.057,0.072,0.1,0.157,0.157,0.229C299.667,139.078,300.124,139.321,300.554,139.192z M273.256,133.398
			c1.917-4.736-2.475-10.73-7.611-9.886c-4.65,0.758-6.023,6.195-5.823,10.215c0.029,0.658,1.102,0.901,1.216,0.172
			c0.444-2.647,0.844-6.309,3.419-7.797c1.774-1.016,3.963-0.558,5.394,0.858c1.774,1.76,1.517,3.934,1.674,6.195
			C271.611,134.185,272.884,134.299,273.256,133.398z"/>
		<path style="fill:#1D1D1B;" d="M335.147,206.763c0.644-0.315,1.044,0.658,0.372,0.901c-2.132,0.773-4.22,1.645-6.324,2.518
			c-0.329,0.143-0.572-0.443-0.243-0.587C331.027,208.68,333.101,207.779,335.147,206.763z"/>
		<path style="fill:#1D1D1B;" d="M326.077,88.031c0.487,0.3,0.057,1.03-0.443,0.772c-2.389-1.259-4.721-2.175-7.411-2.446
			c-0.415-0.043-0.429-0.687,0-0.658C320.955,85.871,323.73,86.558,326.077,88.031z"/>
		<path style="fill:#1D1D1B;" d="M324.203,91.78c0.572,0.257,0.057,1.173-0.487,0.844c-1.702-1.03-3.462-1.96-5.208-2.933
			c-0.415-0.229-0.043-0.858,0.372-0.644C320.655,89.963,322.414,90.921,324.203,91.78z"/>
		<path style="fill:#1D1D1B;" d="M311.012,333.535c0.072-0.644,0.973-0.515,0.873,0.114c-0.315,1.745-0.615,3.491-0.916,5.236
			c-0.057,0.343-0.658,0.272-0.601-0.086C310.583,337.054,310.797,335.294,311.012,333.535z"/>
		<path style="fill:#1D1D1B;" d="M309.638,342.605c0.129,0.272-0.258,0.515-0.415,0.243c-1.76-3.119-2.303-7.254-0.429-10.458
			c0.243-0.401,0.916-0.143,0.773,0.315C308.408,336.095,308.036,339.243,309.638,342.605z"/>
		<path style="fill:#FFD000;" d="M291.955,233.86c7.268-0.715,12.762-7.954,11.503-15.179c-0.3-1.688-0.944-3.205-1.845-4.535
			c6.266,5.723,3.577,18.37-4.893,21.188c-5.336,1.774-10.086-0.143-13.606-3.634C285.732,233.33,288.894,234.16,291.955,233.86z"/>
		<path style="fill:#1D1D1B;" d="M301.898,133.055c0.372,1.817,0.958,5.379-1.345,6.138c-0.429,0.129-0.887-0.115-1.13-0.472
			c-0.057-0.072-0.1-0.157-0.157-0.229c-0.444-0.658,0.1-1.316,0.73-1.416c0.501-0.987-0.243-4.135-0.458-4.678
			c-0.644-1.617-1.917-2.618-3.691-2.389c-3.276,0.429-5.737,4.478-5.551,7.525c0.043,0.744-1.059,0.83-1.259,0.172
			c-1.374-4.621,3.92-11.216,8.927-9.614C300.139,128.777,301.455,130.909,301.898,133.055z"/>
		<path style="fill:#FFD000;" d="M301.312,219.896c0.429,5.708-3.877,11.231-9.657,11.703c-6.366,0.529-13.234-4.349-12.175-11.331
			c0.758-5.05,4.292-7.912,8.57-9.528c0.143,0.057,0.3,0.086,0.472,0.057c0.644-0.115,1.302-0.143,1.96-0.129
			c0.73,0.086,1.459,0.172,2.189,0.229C297.063,211.799,300.969,215.104,301.312,219.896z"/>
		<path style="fill:#1D1D1B;" d="M282.055,151.41c7.482,4.993,6.51,13.176,1.116,19.085c-7.068,7.726-17.74,11.002-27.97,9.614
			c-0.443-0.057-0.815,0.1-1.087,0.358c-2.218-0.386-4.292-1.087-6.352-2.117c-0.129-0.057-0.229-0.014-0.3,0.043
			c-8.012-4.364-15.365-11.689-13.634-21.102c1.932-10.616,24.822-10.344,32.29-9.929
			C271.482,147.676,277.463,148.348,282.055,151.41z"/>
		<path style="fill:#1D1D1B;" d="M265.645,123.512c5.136-0.844,9.528,5.15,7.611,9.886c-0.372,0.901-1.645,0.787-1.731-0.243
			c-0.157-2.26,0.1-4.435-1.674-6.195c-1.431-1.416-3.62-1.874-5.394-0.858c-2.575,1.488-2.976,5.15-3.419,7.797
			c-0.114,0.73-1.187,0.486-1.216-0.172C259.622,129.707,260.996,124.27,265.645,123.512z"/>
		<path style="fill:#1D1D1B;" d="M271.311,380.618c0.744-0.157,1.288,0.916,0.544,1.288c-1.745,0.873-3.405,1.502-4.879,2.847
			c-1.331,1.23-2.089,2.833-3.319,4.12c-0.129,0.115-0.358,0.029-0.343-0.143C263.485,385.21,268.077,381.305,271.311,380.618z"/>
		<path style="fill:#683C11;" d="M262.212,92.853c-2.919,3.734-5.265,8.026-7.196,12.576c-2.632,6.166-4.335,12.647-5.179,19.3
			c-0.83,6.552-1.03,13.219-4.907,18.57c-1.932,1.602-3.82,3.219-5.666,4.907c-0.844,0.415-1.645,0.873-2.389,1.388
			c-9.7-8.37-1.373-25.251,3.19-34.265C245.029,105.486,251.253,96.215,262.212,92.853z M241.739,133.555
			c0.415-0.429-0.243-1.087-0.658-0.658c-1.846,1.917-2.504,4.535-1.774,7.096c0.115,0.386,0.701,0.215,0.601-0.172
			C239.407,137.533,240.079,135.215,241.739,133.555z M237.361,143.413c0.272,0.358,0.83,0.057,0.615-0.358
			c-1.188-2.189-1.302-4.092-1.059-6.51c0.057-0.515-0.715-0.572-0.873-0.114C235.272,138.691,235.959,141.524,237.361,143.413z"/>
		<path style="fill:#1D1D1B;" d="M241.081,132.897c0.415-0.429,1.073,0.229,0.658,0.658c-1.66,1.66-2.332,3.977-1.831,6.266
			c0.1,0.386-0.486,0.558-0.601,0.172C238.577,137.432,239.235,134.814,241.081,132.897z"/>
		<path style="fill:#1D1D1B;" d="M237.976,143.055c0.215,0.415-0.343,0.715-0.615,0.358c-1.402-1.889-2.089-4.721-1.316-6.982
			c0.157-0.458,0.93-0.401,0.873,0.114C236.674,138.963,236.789,140.866,237.976,143.055z"/>
		<path style="opacity:0.31;fill:#936037;" d="M443.189,274.14c-12.79-31.095-45.924-44.671-77.77-43.651
			c0.444-12.009-4.311-22.366-13.582-30.217c-0.129-1.698-2.034-3.45-4.137-2.501c-13.599,6.138-27.292,11.951-42.492,11.538
			c-2.404-0.065-3.022,2.698-1.779,4.295c8.269,10.626-8.375,31.926-18.712,19.187c-0.239-0.294-0.637,0.081-0.494,0.381
			c3.658,7.665,13.154,7.269,19.093,2.477c6.194-4.997,8.936-13.991,6.126-21.312c14.235-0.463,27.464-5.926,40.441-11.632
			c7.13,8.518,10.328,20.18,8.945,31.121c-0.207,1.638,1.624,3.27,3.177,3.176c31.171-1.89,65.859,10.681,76.49,42.783
			c5.41,16.335,0.607,32.321-4.503,48.052c-5.059,15.576-10.471,31-20.363,44.249c-2.47,3.308,3.094,6.51,5.537,3.237
			c10.957-14.68,16.676-32.163,22.181-49.428C446.835,308.686,450.297,291.42,443.189,274.14z"/>
		<path style="opacity:0.31;fill:#936037;" d="M283.354,207.646c-1.129-0.04-2.295,0.128-3.356-0.315
			c-0.816-0.341-2.39-1.59-3.086-0.297c-0.031,0.057-0.062,0.115-0.093,0.172c-0.232,0.431-0.313,1.069,0,1.492
			c1.527,2.067,4.484,3.603,7.052,2.777C285.964,210.802,285.584,207.725,283.354,207.646z"/>
		<path style="opacity:0.31;fill:#936037;" d="M299.83,291.081c1.018-0.527,1.635-1.69,0.785-2.906
			c-2.512-3.59-4.448-7.246-5.875-11.401c-0.614-1.789-3.046-2.239-4.076-0.533l-2.26,3.746c-2.171-5.582-3.153-11.25-3.107-17.445
			c0.011-1.496-1.913-2.901-3.262-1.872c-1.049,0.8-2.035,1.599-2.985,2.438c-0.465-3.985-0.667-7.964-0.625-12.003
			c0.02-1.863-2.663-1.785-2.842,0c-0.551,5.488-0.583,10.818-0.067,16.314c0.162,1.723,2.162,2.788,3.518,1.457
			c0.642-0.677,1.327-1.305,2.019-1.924c0.397,6.642,2.095,12.859,5.104,19.01c0.76,1.553,3.043,1.35,3.856,0
			c0.726-1.206,1.453-2.412,2.179-3.618c1.258,2.81,2.738,5.469,4.599,8.063c0.4,0.557,0.93,0.846,1.478,0.936
			c-0.425,0.194-0.818,0.489-1.131,0.9c-14.449,19.007-12.186,46.669-8.238,68.731c0.282,1.577,2.723,1.467,3.08,0
			c2.573-10.573,0.246-21.723,0.406-32.458c0.088-5.911,0.826-11.694,2.668-17.33c1.903-5.822,5.305-11.015,7.026-16.859
			C302.649,292.402,301.335,291.208,299.83,291.081z"/>
		<path style="opacity:0.31;fill:#936037;" d="M264.323,371.556c-3.229,2.843-5.326,7.498-6.091,11.66
			c-0.18,0.977,1.294,1.806,1.747,0.736c0.772-1.825,1.638-3.573,2.69-5.254c1.13-1.805,2.581-3.248,3.913-4.884
			C267.867,372.234,265.89,370.176,264.323,371.556z"/>
		<path style="opacity:0.31;fill:#936037;" d="M270.903,377.223c-2.216,0.32-4.407,2.426-5.721,4.12
			c-1.424,1.836-2.44,3.949-2.682,6.271c-0.107,1.029,1.573,1.496,1.992,0.539c0.773-1.765,1.602-3.416,2.977-4.799
			c1.413-1.42,3.138-1.975,4.714-3.098C273.769,379.126,272.766,376.954,270.903,377.223z"/>
		<path style="opacity:0.31;fill:#936037;" d="M292.147,365.02c-2.966,3.031-5.017,7.001-5.285,11.275
			c-0.063,0.995,1.49,1.189,1.729,0.234c0.944-3.78,2.604-6.913,5.601-9.464C295.598,365.869,293.465,363.674,292.147,365.02z"/>
		<path style="opacity:0.31;fill:#936037;" d="M298.806,369.686c-3.771,2.541-6.176,7.732-7.233,12.015
			c-0.26,1.055,1.367,1.86,1.839,0.775c0.822-1.892,1.78-3.742,2.973-5.43c1.274-1.805,2.979-3.171,4.326-4.891
			C301.711,370.879,300.426,368.595,298.806,369.686z"/>
		<path style="opacity:0.31;fill:#936037;" d="M339.069,285.991c-7.212,16.867-11.613,34.269-14.128,52.411
			c-1.218,8.784-1.621,17.302-1.583,26.158c0.031,7.385-1.67,9.951-8.77,12.557c-4.664,1.712-9.44,2.984-14.296,4.001
			c-0.899,0.188-0.702,1.646,0.217,1.605c7.456-0.325,17.952-0.928,23.926-6.013c6.155-5.239,3.63-15.451,3.506-22.449
			c-0.412-23.189,4.454-45.469,13.973-66.608C342.783,285.724,339.895,284.06,339.069,285.991z"/>
		<path style="opacity:0.31;fill:#936037;" d="M399.85,277.783c-9.331-1.508-17.628,1.895-24.706,7.916
			c-7.267,6.183-15.398,15.475-19.295,24.241c-3.661,8.234-2.431,17.612,1.696,25.458c2.322,4.415,6.226,9.634,10.938,12.657
			c-9.753-0.349-20.278,2.311-28.262,7.354c-7.428,4.692-15.465,13.975-11.048,23.107c0.526,1.087,2.248,0.823,2.652-0.172
			c0.002,0.024,0.001,0.048,0.003,0.072c0.077,0.744,1.125,0.977,1.358,0.184c0.785-2.666,1.535-5.182,3.324-7.389
			c1.672-2.064,3.849-3.289,6.099-4.609c1.111-0.652,0.365-2.334-0.862-2.045c-4.913,1.154-9.293,6.511-9.896,11.693
			c-0.072-10.038,9.763-16.953,18.526-20.073c7.872-2.803,16.239-2.691,24.21-4.869c0.403-0.11,0.676-0.413,0.829-0.77
			c0.011,0.001,0.022,0.004,0.033,0.004c1.284,0.085,2.377-1.64,1.564-2.725c-3.601-4.802-8.978-7.615-12.331-12.836
			c-4.959-7.72-6.332-16.976-1.605-25.129c7.466-12.878,20.409-26.841,36.122-27.253C401.834,282.53,402.688,278.241,399.85,277.783
			z"/>
		<path style="opacity:0.31;fill:#936037;" d="M346.01,369.465c-4.558,1.636-8.227,4.966-10.407,9.281
			c-0.414,0.82,0.748,1.514,1.238,0.724c2.297-3.709,5.705-6.239,9.837-7.579C348.22,371.389,347.529,368.919,346.01,369.465z"/>
	</g>
	<g>
		<path style="fill:#1D1D1B;" d="M464.578,197.557c-0.043,0.029-0.057,0.057-0.072,0.086c-0.529,0.63-1.545-0.2-1.116-0.858
			c1.073-1.702,5.766-9.442,1.96-10.329c-1.517-0.358-3.92,0.987-5.208,1.631c-1.245,0.63-2.375,1.402-3.562,2.117
			c-0.315,0.572-1.345,0.487-1.302-0.3c0.115-2.89,0.587-14.707-4.049-8.384c-2.203,2.99-3.663,6.438-5.007,9.886
			c-0.901,2.318-1.602,5.68-3.047,8.255c0.029,0.029,0.072,0.057,0.1,0.086c-0.143,0.172-0.272,0.358-0.372,0.572
			c-0.029-0.029-0.057-0.043-0.086-0.072c-0.715,1.13-1.602,2.06-2.761,2.604c-0.1,0.358-0.386,0.658-0.873,0.658
			c-17.526-0.043-16.496-21.217-22.032-32.619c-5.622-11.603-19.657-14.965-30.931-9.743c-9.543,4.421-16.453,13.72-19.028,23.806
			c-5.437,21.188,7.44,43.278,28.957,48.285c1.016,0.243,2.06,0.429,3.119,0.601c0.186-0.1,0.401-0.071,0.544,0.072
			c17.554,2.475,39.258-5.265,48.214-20.73c-0.272-0.386-0.286-0.93,0.258-1.173c0.172-0.086,0.329-0.143,0.501-0.215
			c0.043-0.1,0.1-0.186,0.143-0.286c0.157-0.3,0.529-0.272,0.73-0.1c4.507-1.86,9.213-3.047,13.763-4.807
			c1.016-0.401,3.462-1.331,5.565-2.461c0.172-0.029,0.329-0.029,0.501-0.057c0.873-0.114,1.545-0.744,1.96-1.531
			c0.329-0.286,0.615-0.558,0.801-0.844c0.114,0.057,0.243,0.086,0.358,0.115c0.157-0.215,0.243-0.429,0.301-0.644
			c-0.043-0.072-0.072-0.172-0.029-0.272c0.029-0.072,0.043-0.157,0.057-0.229c-0.086-0.958-1.044-1.76-2.132-2.203
			c-0.801-0.658-1.917-0.887-3.062-0.73c-0.744,0.1-1.474,0.157-2.218,0.229c-0.029-0.014-0.072-0.014-0.1-0.029
			c-0.229,0.029-0.444,0.057-0.658,0.086C464.492,198.057,464.435,197.729,464.578,197.557z M474.092,201.277
			c-0.086,0.801-0.486,1.545-1.288,1.96c-0.043,0.014-0.086,0.029-0.129,0.029c-5.894,5.823-16.553,7.082-23.506,10.244
			c-0.014,0-0.043,0-0.057,0.014c-5.78,13.634-21.403,20.33-35.681,22.304c0.443,2.661,0.887,5.336,1.316,8.012
			c2.475-0.072,4.821,1.989,4.793,4.535c-0.014,1.116-1.76,1.116-1.731,0c0.043-1.602-1.331-2.733-2.804-2.847
			c0.186,1.245,0.401,2.504,0.572,3.748c0.157,1.016-1.288,1.488-1.588,0.444c-0.343-1.188-0.629-2.447-0.873-3.72
			c-1.559,0.944-2.132,2.904-2.117,4.65c0,0.458-0.672,0.544-0.787,0.114c-0.658-2.418,0.401-5.293,2.632-6.452
			c-0.429-2.775-0.644-5.637-0.572-8.326c-1.216,0.143-2.432,0.272-3.62,0.358c-2.933,0.2-5.794,0.072-8.555-0.301
			c0.2,2.804,0.372,5.694,0.386,8.555c2.475,0.2,3.906,2.876,4.206,5.079c0.143,0.959-1.044,1.273-1.416,0.401
			c-0.601-1.402-1.145-3.734-2.79-3.949c-0.029,1.388-0.072,2.775-0.2,4.135c-0.1,1.03-1.502,1.03-1.602,0
			c-0.115-1.145-0.172-2.318-0.2-3.505c-1.073,0.773-1.974,2.06-2.847,2.876c-0.358,0.329-0.844-0.086-0.658-0.501
			c0.658-1.388,1.946-3.19,3.505-4.049c0-3.076,0.172-6.195,0.401-9.228c-23.434-3.92-39.258-27.512-34.25-49.988
			c-1.974-0.773-3.691-2.046-5.122-3.62c-1.216-1.33-2.861-3.276-2.919-5.165c-0.057-2.003,1.688-2.289,3.29-2.16
			c2.489,0.186,5.68,0.587,7.769,2.06c0.029,0.029,0.057,0.072,0.086,0.1c1.159-2.332,2.532-4.635,4.206-6.853
			c8.355-11.002,23.363-17.54,36.525-11.088c6.653,3.262,10.415,9.142,12.533,16.066c3.076,10.043,4.464,25.967,18.184,26.396
			c0.157,0,0.3,0.043,0.429,0.114c0.772-0.601,1.445-1.502,2.031-2.561c-0.072-0.072-0.143-0.143-0.2-0.215
			c0.172-0.143,0.315-0.286,0.472-0.472c0.014,0.014,0.043,0.043,0.057,0.057c0.043-0.114,0.114-0.229,0.157-0.343
			c0.014-0.014,0.014-0.043,0.029-0.057c0.143-0.215,0.243-0.458,0.315-0.701c1.388-3.262,2.275-7.268,3.262-9.557
			c1.402-3.248,3.376-7.926,6.452-10c4.964-3.362,4.736,7.482,4.535,11.159c2.561-2.303,7.926-5.68,10.601-3.362
			c1.402,1.216,0.944,3.305,0.572,4.879c-0.558,2.389-1.602,4.721-3.105,6.681c0.773-0.215,1.66-0.329,2.561-0.343
			c0.772-0.129,1.631-0.229,2.475-0.286c0.143,0.057,0.286,0.086,0.429,0.115c0.3,0.057,0.572,0.157,0.844,0.3
			c-0.043,0.072-0.1,0.143-0.157,0.215c0.114,0.043,0.229,0.072,0.329,0.1c-0.029-0.029-0.071-0.043-0.1-0.086
			c-0.057-0.043-0.057-0.129-0.043-0.2C472.461,197.771,473.334,199.517,474.092,201.277z M367.192,178.2c-0.029,0-0.043,0-0.057,0
			c-1.602-0.215-3.119-0.916-4.721-1.23c-0.701-0.129-2.532-0.701-3.233-0.372c-1.13,0.529-0.529,1.56-0.1,2.303
			c1.431,2.489,3.491,4.221,5.823,5.794C365.461,182.506,366.22,180.331,367.192,178.2z"/>
		<path style="fill:#F7BE29;" d="M466.367,204.395c-1.102,0.114-2.189,0.3-3.233,0.687c-0.186,0.071-0.386,0.114-0.572,0.143
			c-0.114,0.157-0.258,0.315-0.401,0.443C463.577,205.311,465.036,204.953,466.367,204.395z M472.933,200.676
			c-0.014,0.072-0.029,0.157-0.057,0.229c-0.043,0.1-0.014,0.2,0.029,0.272c-0.057,0.215-0.143,0.429-0.301,0.644
			c-0.114-0.029-0.243-0.057-0.358-0.115c-0.186,0.286-0.472,0.558-0.801,0.844c-0.415,0.787-1.087,1.416-1.96,1.531
			c-0.172,0.029-0.329,0.029-0.501,0.057c-2.103,1.13-4.549,2.06-5.565,2.461c-4.549,1.76-9.256,2.947-13.763,4.807
			c-0.2-0.172-0.572-0.2-0.73,0.1c-0.043,0.1-0.1,0.186-0.143,0.286c-0.172,0.071-0.329,0.129-0.501,0.215
			c-0.544,0.243-0.529,0.787-0.258,1.173c-8.956,15.466-30.659,23.205-48.214,20.73c-0.143-0.143-0.358-0.172-0.544-0.072
			c-1.059-0.172-2.103-0.358-3.119-0.601c-21.517-5.007-34.393-27.097-28.957-48.285c2.575-10.086,9.485-19.386,19.028-23.806
			c11.274-5.222,25.309-1.86,30.931,9.743c5.537,11.402,4.507,32.576,22.032,32.619c0.486,0,0.772-0.301,0.873-0.658
			c1.159-0.544,2.046-1.474,2.761-2.604c0.029,0.029,0.057,0.043,0.086,0.072c0.1-0.215,0.229-0.401,0.372-0.572
			c-0.029-0.029-0.072-0.057-0.1-0.086c1.445-2.575,2.146-5.937,3.047-8.255c1.345-3.448,2.804-6.896,5.007-9.886
			c4.635-6.324,4.163,5.494,4.049,8.384c-0.043,0.787,0.987,0.873,1.302,0.3c1.188-0.715,2.318-1.488,3.562-2.117
			c1.288-0.644,3.691-1.989,5.208-1.631c3.806,0.887-0.887,8.627-1.96,10.329c-0.429,0.658,0.587,1.488,1.116,0.858
			c0.014-0.029,0.029-0.057,0.072-0.086c-0.143,0.172-0.086,0.501,0.186,0.472c0.215-0.029,0.429-0.057,0.658-0.086
			c0.029,0.014,0.072,0.014,0.1,0.029c0.744-0.072,1.474-0.129,2.218-0.229c1.145-0.157,2.26,0.072,3.062,0.73
			C471.889,198.916,472.848,199.717,472.933,200.676z M424.82,209.775c0.072-0.544-0.873-0.672-0.958-0.129
			c-0.229,1.345-0.629,2.432-1.645,3.391c-0.215,0.2,0.086,0.615,0.329,0.415C423.718,212.564,424.634,211.248,424.82,209.775z
			 M420.256,212.207c0.544-0.73,1.202-2.16,0.587-3.019c-0.157-0.229-0.544-0.3-0.687,0c-0.358,0.73-0.258,1.574-0.672,2.318
			c-0.458,0.83-1.245,1.431-2.146,1.702c-0.458,0.129-0.258,0.744,0.186,0.687C418.639,213.738,419.584,213.108,420.256,212.207z
			 M415.85,205.941c1.173,1.402,1.774,3.92-0.172,5.05c-1.459,0.844-3.477,0.2-4.964-0.215c-0.544-0.143-0.773,0.458-0.486,0.801
			c-0.2,0.258-0.286,0.601-0.1,0.959c1.202,2.26,2.447,4.549,2.847,7.096c0.243,1.516,0.143,3.405-1.331,4.378
			c-0.558,0.372-2.804,0.186-3.577,0.1c-4.364-0.458-7.926-2.904-10.702-6.18c-0.329-0.372-0.858,0-0.815,0.415
			c-0.072,0.043-0.129,0.1-0.172,0.186c-0.358,0.587-0.701,1.173-1.044,1.774c-1.345,2.804-3.663,2.704-6.924-0.286
			c-0.844-1.373-0.587-3.834-0.687-5.408c-0.243-3.648-0.358-7.296-0.3-10.959c0.014-0.658-0.987-0.644-1.016,0
			c-0.243,4.378-0.415,8.77-0.115,13.148c0.157,2.475,0.472,5.265,2.547,6.939c3.706,2.99,7.082-0.615,8.556-3.992
			c3.133,4.406,9.113,7.053,14.478,5.98c5.98-1.216,2.046-9.843,0.072-13.505c3.047,0.715,6.681,0.186,6.681-3.763
			c0-4.635-5.794-7.125-9.199-8.999c-1.03-0.572-1.903,0.944-0.916,1.574C410.885,202.55,414.018,203.752,415.85,205.941z
			 M412.759,169.358c0.143,0.272,0.629,0.086,0.515-0.229c-0.83-2.346-2.904-4.335-5.065-5.479c-0.2-0.115-0.386,0.186-0.186,0.315
			C410.227,165.352,411.529,167.126,412.759,169.358z M409.812,169.859c0.358,0.515,1.087-0.029,0.687-0.515
			c-0.816-0.973-1.631-1.946-2.432-2.933c-0.186-0.243-0.601,0.086-0.415,0.329C408.396,167.77,409.111,168.815,409.812,169.859z
			 M391.457,226.885c0.329,0.014,0.415-0.529,0.086-0.601c-1.559-0.272-2.804-0.858-3.834-2.089c-0.172-0.2-0.529,0.057-0.372,0.286
			C388.252,225.813,389.811,226.814,391.457,226.885z M389.554,227.758c0.458,0.043,0.558-0.715,0.1-0.815
			c-2.146-0.501-3.891-1.488-4.964-3.505c-0.186-0.329-0.644-0.029-0.501,0.3C385.119,225.841,387.193,227.587,389.554,227.758z
			 M386.149,181.934c1.001-1.388,2.031-3.176,1.588-4.964c-0.386-1.574-1.845-2.604-3.419-2.776
			c-2.804-0.315-7.025,2.332-6.295,5.537c0.114,0.515,0.873,0.372,0.887-0.114c0.086-2.032,2.947-3.734,4.85-3.663
			c1.245,0.057,2.175,0.83,2.16,2.117c0,1.03-0.858,2.089-1.402,2.904C383.817,182.005,385.448,182.907,386.149,181.934z"/>
		<path style="fill:#1D1D1B;" d="M463.133,205.082c1.044-0.386,2.132-0.572,3.233-0.687c-1.33,0.558-2.79,0.916-4.206,1.273
			c0.143-0.129,0.286-0.286,0.401-0.443C462.747,205.197,462.947,205.154,463.133,205.082z"/>
		<path style="fill:#1D1D1B;" d="M423.861,209.646c0.086-0.544,1.03-0.415,0.958,0.129c-0.186,1.474-1.102,2.79-2.275,3.677
			c-0.243,0.2-0.544-0.215-0.329-0.415C423.232,212.078,423.632,210.991,423.861,209.646z"/>
		<path style="fill:#1D1D1B;" d="M420.843,209.188c0.615,0.858-0.043,2.289-0.587,3.019c-0.672,0.901-1.617,1.531-2.733,1.688
			c-0.444,0.057-0.644-0.558-0.186-0.687c0.901-0.272,1.688-0.873,2.146-1.702c0.415-0.744,0.315-1.588,0.672-2.318
			C420.299,208.888,420.685,208.959,420.843,209.188z"/>
		<path style="fill:#1D1D1B;" d="M415.678,210.991c1.946-1.13,1.345-3.648,0.172-5.05c-1.831-2.189-4.964-3.391-7.339-4.907
			c-0.987-0.63-0.115-2.146,0.916-1.574c3.405,1.874,9.199,4.364,9.199,8.999c0,3.949-3.634,4.478-6.681,3.763
			c1.974,3.662,5.909,12.289-0.072,13.505c-5.365,1.073-11.345-1.574-14.478-5.98c-1.474,3.376-4.85,6.982-8.556,3.992
			c-2.074-1.674-2.389-4.464-2.547-6.939c-0.3-4.378-0.129-8.77,0.115-13.148c0.029-0.644,1.03-0.658,1.016,0
			c-0.057,3.663,0.057,7.311,0.3,10.959c0.1,1.574-0.157,4.035,0.687,5.408c3.262,2.99,5.58,3.09,6.924,0.286
			c0.343-0.601,0.687-1.187,1.044-1.774c0.043-0.086,0.1-0.143,0.172-0.186c-0.043-0.415,0.486-0.787,0.815-0.415
			c2.775,3.276,6.338,5.723,10.702,6.18c0.772,0.086,3.019,0.272,3.577-0.1c1.474-0.973,1.574-2.861,1.331-4.378
			c-0.401-2.547-1.645-4.836-2.847-7.096c-0.186-0.358-0.1-0.701,0.1-0.959c-0.286-0.343-0.057-0.944,0.486-0.801
			C412.201,211.191,414.219,211.835,415.678,210.991z"/>
		<path style="fill:#1D1D1B;" d="M413.274,169.129c0.115,0.315-0.372,0.501-0.515,0.229c-1.23-2.232-2.532-4.006-4.736-5.394
			c-0.2-0.129-0.014-0.429,0.186-0.315C410.37,164.794,412.445,166.783,413.274,169.129z"/>
		<path style="fill:#1D1D1B;" d="M410.499,169.344c0.401,0.486-0.329,1.03-0.687,0.515c-0.701-1.044-1.416-2.089-2.16-3.119
			c-0.186-0.243,0.229-0.572,0.415-0.329C408.868,167.398,409.683,168.371,410.499,169.344z"/>
		<path style="fill:#1D1D1B;" d="M391.542,226.285c0.329,0.072,0.243,0.615-0.086,0.601c-1.645-0.072-3.205-1.073-4.12-2.404
			c-0.157-0.229,0.2-0.486,0.372-0.286C388.738,225.426,389.983,226.013,391.542,226.285z"/>
		<path style="fill:#1D1D1B;" d="M389.654,226.943c0.458,0.1,0.358,0.858-0.1,0.815c-2.361-0.172-4.435-1.917-5.365-4.02
			c-0.143-0.329,0.315-0.63,0.501-0.3C385.763,225.455,387.508,226.442,389.654,226.943z"/>
		<path style="fill:#1D1D1B;" d="M387.737,176.969c0.444,1.788-0.587,3.577-1.588,4.964c-0.701,0.973-2.332,0.072-1.631-0.959
			c0.544-0.815,1.402-1.874,1.402-2.904c0.014-1.288-0.916-2.06-2.16-2.117c-1.903-0.072-4.764,1.631-4.85,3.663
			c-0.014,0.486-0.773,0.629-0.887,0.114c-0.73-3.205,3.491-5.851,6.295-5.537C385.891,174.366,387.351,175.396,387.737,176.969z"/>
		<path style="fill:#F09C26;" d="M367.135,178.2c0.014,0,0.029,0,0.057,0c-0.973,2.132-1.731,4.306-2.289,6.495
			c-2.332-1.574-4.392-3.305-5.823-5.794c-0.429-0.744-1.03-1.774,0.1-2.303c0.701-0.329,2.532,0.243,3.233,0.372
			C364.016,177.284,365.533,177.985,367.135,178.2z"/>
		<path style="fill:#FCEA10;" d="M420.324,208.937c0.101-2.326-3.758-2.305-3.596,0c0.1,1.43-0.799,2.413-1.985,2.766
			c-0.042-0.065-0.075-0.133-0.119-0.197c-1.403-2.042-4.682-0.207-3.366,1.967c1.977,3.267,1.61,8.035-1.935,10.171
			c-3.548,2.138-8.29,0.487-10.514-2.731c-0.029-0.043-0.072-0.066-0.106-0.103c-0.356-0.724-1.11-1.214-2.09-0.885
			c-1.251,0.42-1.883,0.827-2.785,1.783c-0.494,0.523-1.175,2.234-1.832,2.532c-2.757,1.253-3.96-1.947-4.29-3.907
			c-0.929-5.52-0.283-11.639-0.574-17.24c-0.082-1.576-2.196-1.492-2.389,0c-0.636,4.922-0.998,9.844-0.982,14.81
			c0.01,3.007,0.143,6.222,2.243,8.594c1.416,1.6,3.683,2.592,5.83,2.214c2.953-0.519,3.711-3.372,5.799-5.003
			c2.873,4.12,8.612,5.896,13.261,3.385c4.486-2.423,6.47-8.116,5.023-12.86C418.221,213.577,420.223,211.281,420.324,208.937z"/>
		<path style="fill:#FCEA10;" d="M454.138,181.771c0.227-1.896-2.505-2.303-3.374-0.914c-2.096,3.352-3.105,7.456-4.567,11.126
			c-1.349,3.387-2.659,6.775-3.873,10.208c-10.297,3.458-17.548-0.169-20.193-11.124c-1.607-6.656-1.95-13.529-5.8-19.419
			c-7.039-10.766-21.792-15.289-32.993-8.407c-0.582,0.358-0.205,1.273,0.465,1.103c11.262-2.845,23.163-0.475,28.606,10.823
			c3.496,7.256,2.732,15.793,5.86,23.184c4.29,10.137,17.495,15.827,26.778,8.43c1.284-1.023,0.978-2.742-0.001-3.801
			C449.132,196.754,453.283,188.908,454.138,181.771z"/>
		<path style="fill:#FCEA10;" d="M462.974,186.65c-3.336,0.328-6.946,2.047-9.492,4.21c-1.025,0.87,0.066,2.66,1.309,2.249
			c1.429-0.473,2.802-1.036,4.271-1.391c1.483-0.358,3.005-0.492,4.483-0.844C465.852,190.323,465.424,186.409,462.974,186.65z"/>
		<path style="fill:#FCEA10;" d="M472.044,198.088c-2.472-1.128-5.757-1.673-8.311-0.525c-1.074,0.482-0.503,2.179,0.584,2.156
			c0.868-0.019,1.71-0.092,2.568,0.022c0.074,0.896,0.678,1.76,1.828,1.801l2.372,0.086
			C472.886,201.693,473.786,198.883,472.044,198.088z"/>
	</g>
	<g>
		<path style="fill:#1D1D1B;" d="M266.318,321.005c13.634,7.912,21.517,24.45,17.583,40.03c-1.602,6.324-5.151,12.046-9.857,16.524
			c-1.946,1.86-4.106,3.505-6.395,4.893c1.188,1.617,3.72,4.778,5.236,2.604c1.302-1.888,0.787-4.921,1.001-7.068
			c0.014-0.157,0.086-0.3,0.172-0.415c0.343-0.415,1.087-0.444,1.245,0.229c0.472,2.003,0.115,4.335-0.401,6.309
			c-0.3,1.187-0.787,2.632-1.946,3.248c-2.461,1.331-5.022-2.332-6.066-4.449c-5.136,2.933-10.973,4.607-16.954,4.478
			c0.258,3.72-0.944,8.155-5.293,8.57c-3.806,0.372-6.352-2.489-6.939-5.837c-14.092,3.176-28.256,0.858-42.09-2.604
			c0.2,2.146,0.086,4.321-1.187,6.137c-1.245,1.76-3.419,2.89-5.551,2.175c-2.904-0.973-3.934-4.106-3.963-7.354
			c-0.1,0-0.2-0.014-0.315-0.057c-15.866-5.723-24.15-23.706-22.862-40.388c-17.669-3.92-4.149-34.708,11.631-24.522
			c9.714-8.598,22.891-11.531,35.638-11.817c16.467-0.358,33.893,2.031,49.372,7.754c0.658-1.488,1.373-2.947,1.974-4.464
			c0.172-0.429,0.701-0.801,1.159-0.472c2.146,1.517,3.691,3.848,4.22,6.381C265.917,320.862,266.117,320.876,266.318,321.005z
			 M282.098,360.534c1.001-4.02,1.145-8.112,0.601-12.075c-9.385,2.318-19.157-2.103-23.32-10.973
			c-1.331-2.847-2.103-5.179,0.93-6.824c3.748-2.032,8.927-2.117,13.191-1.431c-2.218-2.404-4.764-4.521-7.597-6.238
			c-0.029,0.83-0.129,1.688-0.401,2.518c-0.343,1.016-1.831,0.601-1.602-0.444c0.701-3.262-0.072-6.481-2.561-8.67
			c-1.13,1.974-2.117,4.035-3.376,5.923c-0.215,0.315-0.773,0.129-0.644-0.272c0.186-0.544,0.401-1.059,0.615-1.588
			c-14.207-3.333-30.831-7.368-46.726-7.282c6.281,9.857,1.831,20.759-3.963,29.744c-4.635,7.168-10.544,14.421-11.302,23.277
			c-0.715,8.312,3.119,15.752,8.985,21.36c0.172,0.172,0.143,0.415,0.014,0.572c10.859,1.717,21.646,2.833,32.619,0.258
			c0.014-0.258,0.029-0.515,0.057-0.758c0.086-0.801,1.23-1.073,1.474-0.2c0.143,0.072,0.301,0.157,0.443,0.229
			c0.286,0.086,0.172,0.486-0.114,0.443c-1.188-0.229,0.672,3.892,0.901,4.192c1.044,1.388,2.747,2.175,4.492,1.817
			c3.333-0.687,3.548-4.607,3.219-7.339c-0.114-1.044,1.345-1.145,1.745-0.315C264.544,384.827,278.335,375.556,282.098,360.534z
			 M282.499,347.315c0.014-0.014,0.029,0,0.043,0c-1.087-6.295-3.949-12.218-8.126-17.082c-3.333-0.229-7.44-0.486-10.473,0.787
			c-1.302,0.072-2.26,0.701-2.876,1.903c-1.388,0.687-1.688,1.602-0.901,2.761c0.215,1.517,1.588,3.319,2.475,4.521
			C267.29,346.585,274.93,348.803,282.499,347.315z M195.828,359.461c5.065-14.507,24.665-29.314,13.892-45.796
			c-0.1-0.157-0.115-0.315-0.1-0.458c-10.115,0.243-19.886,2.217-28.513,7.225c-11.703,6.781-17.311,17.84-17.197,31.217
			c0.114,14.75,6.438,29.615,21.074,35.008c0.186-1.974,0.673-3.834,1.259-5.15c0.243-0.529,0.987-0.129,0.887,0.372
			c-0.572,2.976-1.145,7.84,0.401,10.63c1.445,2.604,4.635,1.989,5.894-0.429c1.016-1.946,0.63-4.435,0.343-6.524
			c-0.129-1.001,1.388-1.445,1.545-0.429c0.071,0.487,0.143,0.973,0.2,1.459c0.014,0,0.029,0,0.057,0
			c2.847,0.472,5.68,0.959,8.527,1.416C195.371,381.322,192.194,369.848,195.828,359.461z M171.478,325.297
			c0.243-0.229,0.486-0.458,0.73-0.687c-13.248-7.568-25.151,16.038-10.415,22.791C162.551,339.103,165.684,331.177,171.478,325.297
			z"/>
		<path style="fill:#EAD8C2;" d="M282.699,348.46c0.544,3.963,0.401,8.055-0.601,12.075c-3.763,15.022-17.554,24.293-32.319,25.924
			c-0.401-0.83-1.86-0.73-1.745,0.315c0.329,2.733,0.114,6.653-3.219,7.339c-1.745,0.358-3.448-0.429-4.492-1.817
			c-0.229-0.3-2.089-4.421-0.901-4.192c0.286,0.043,0.401-0.358,0.114-0.443c-0.143-0.072-0.3-0.157-0.443-0.229
			c-0.243-0.873-1.388-0.601-1.474,0.2c-0.029,0.243-0.043,0.501-0.057,0.758c-10.973,2.575-21.76,1.459-32.619-0.258
			c0.129-0.157,0.157-0.4-0.014-0.572c-5.866-5.608-9.7-13.048-8.985-21.36c0.758-8.856,6.667-16.109,11.302-23.277
			c5.794-8.985,10.244-19.886,3.963-29.744c15.895-0.086,32.519,3.949,46.726,7.282c-0.215,0.529-0.429,1.044-0.615,1.588
			c-0.129,0.401,0.429,0.587,0.644,0.272c1.259-1.888,2.246-3.949,3.376-5.923c2.489,2.189,3.262,5.408,2.561,8.67
			c-0.229,1.044,1.259,1.459,1.602,0.444c0.272-0.83,0.372-1.688,0.401-2.518c2.833,1.717,5.379,3.834,7.597,6.238
			c-4.263-0.687-9.442-0.601-13.191,1.431c-3.033,1.645-2.261,3.977-0.93,6.824C263.542,346.356,273.314,350.777,282.699,348.46z
			 M270.781,374.755c0.186-0.415-0.343-0.93-0.687-0.529c-0.687,0.816-1.245,1.674-2.032,2.404c-0.815,0.773-1.76,1.374-2.775,1.86
			c-0.358,0.157-0.1,0.787,0.272,0.644C267.562,378.289,269.823,376.801,270.781,374.755z M261.968,355.169
			c3.276,2.203,8.098-0.129,7.711-4.306c-0.1-0.973-1.488-1.001-1.531,0c-0.143,3.033-2.89,5.122-5.809,3.648
			C261.911,354.297,261.568,354.897,261.968,355.169z M268.778,372.795c0.229-0.315-0.286-0.701-0.529-0.415
			c-0.787,0.901-1.502,1.717-2.504,2.389c-0.272,0.186-0.029,0.601,0.243,0.444C267.019,374.569,268.063,373.768,268.778,372.795z
			 M265.817,353.767c0.343,0.572,1.245,0.057,0.887-0.515c-0.73-1.216-1.517-2.375-2.303-3.534c0.258-0.129,0.458-0.372,0.444-0.772
			c-0.014-0.758-0.029-1.517-0.043-2.275c0-0.472-0.415-0.973-0.93-0.93c-1.702,0.129-3.477,0.901-4.449,2.361
			c-0.315,0.472-0.014,1.216,0.529,1.331c1.188,0.243,2.375,0.544,3.591,0.515c0.029,0,0.043-0.029,0.072-0.029
			C264.315,351.221,265.03,352.508,265.817,353.767z M244.199,374.054c20.359,1.374,17.84-35.338-0.114-35.967
			c-0.558-0.014-0.73,0.544-0.529,0.93C224.699,342.751,222.038,372.552,244.199,374.054z M242.468,326.67
			c0.301,0.115,0.558-0.343,0.315-0.558c-1.102-1.001-2.318-1.817-3.534-2.661c-0.959-0.658-2.089-1.731-3.19-2.132
			c-1.774-0.615-2.346,1.073-2.704,2.504c-1.016,3.963-0.515,9.342,4.077,10.701c0.672,0.2,1.087-0.773,0.472-1.13
			c-3.348-1.917-3.72-5.651-2.804-9.099c0.343-1.302,0.114-1.13,1.145-0.83c0.687,0.186,1.631,0.901,2.275,1.245
			C239.807,325.411,241.081,326.127,242.468,326.67z M240.279,388.347c0.043-0.057-0.029-0.129-0.086-0.086
			c-0.129,0.129-0.258,0.243-0.401,0.372c-0.072,0.057,0.043,0.172,0.114,0.1C240.036,388.604,240.151,388.475,240.279,388.347z
			 M237.003,374.655c0.358,0.115,0.672-0.372,0.372-0.629c-0.672-0.572-1.502-0.958-2.232-1.459
			c-0.343-0.243-0.701-0.486-1.03-0.744c-0.272-0.215-0.544-0.415-0.801-0.644c-0.286-0.229-0.315-0.415-0.544-0.687
			c0.086,0.114,0.272-0.029,0.2-0.143c-0.157-0.229-0.429-0.315-0.673-0.143c-0.415,0.272-0.186,0.773,0.057,1.073
			c0.572,0.701,1.373,1.316,2.089,1.846C235.215,373.711,236.073,374.383,237.003,374.655z M235.2,376.358
			c0.486,0.157,0.83-0.615,0.358-0.83c-1.416-0.644-2.733-1.288-3.963-2.26c-0.358-0.286-0.887,0.2-0.529,0.529
			C232.239,374.884,233.67,375.857,235.2,376.358z M219.878,332.021c1.073-1.373,1.717-3.233,1.359-4.979
			c-0.115-0.572-1.102-0.443-1.03,0.143c0.2,1.645,0.129,3.019-0.816,4.464C219.206,331.935,219.663,332.293,219.878,332.021z
			 M216.773,333.809c0.844-1.903,1.574-4.135,1.445-6.252c-0.043-0.486-0.858-0.687-0.93-0.129
			c-0.286,2.117-0.458,4.092-1.159,6.109C215.987,333.91,216.602,334.181,216.773,333.809z"/>
		<path style="fill:#936037;" d="M282.541,347.315c-0.014,0-0.029-0.014-0.043,0c-7.568,1.488-15.208-0.73-19.858-7.111
			c-0.887-1.202-2.26-3.004-2.475-4.521c-0.787-1.159-0.486-2.074,0.901-2.761c0.615-1.202,1.574-1.831,2.876-1.903
			c3.033-1.273,7.139-1.016,10.473-0.787C278.593,335.097,281.454,341.02,282.541,347.315z M271.969,337.2
			c0.043-0.944-1.016-1.631-1.817-1.874c-0.873-0.258-1.86-0.143-2.618,0.372c-1.531,1.03-1.645,3.806,0.086,4.721
			c0.372,0.2,0.93-0.243,0.644-0.629c-0.63-0.844-0.901-2.246,0.157-2.919c0.415-0.258,0.973-0.272,1.431-0.1
			c0.529,0.2,0.758,0.658,1.23,0.944C271.482,337.958,271.954,337.644,271.969,337.2z"/>
		<path style="fill:#EAD8C2;" d="M274.043,377.559l0.014,0.014c-0.086,0.114-0.157,0.258-0.172,0.415
			c-0.215,2.146,0.3,5.179-1.001,7.068c-1.517,2.175-4.049-0.987-5.236-2.604C269.937,381.065,272.098,379.419,274.043,377.559z"/>
		<path style="fill:#1D1D1B;" d="M270.152,335.326c0.801,0.243,1.86,0.93,1.817,1.874c-0.014,0.443-0.486,0.758-0.887,0.515
			c-0.472-0.286-0.701-0.744-1.23-0.944c-0.458-0.172-1.016-0.157-1.431,0.1c-1.059,0.672-0.787,2.074-0.157,2.919
			c0.286,0.386-0.272,0.83-0.644,0.629c-1.731-0.916-1.617-3.691-0.086-4.721C268.292,335.183,269.279,335.068,270.152,335.326z"/>
		<path style="fill:#1D1D1B;" d="M270.095,374.226c0.343-0.401,0.873,0.115,0.687,0.529c-0.958,2.046-3.219,3.534-5.222,4.378
			c-0.372,0.143-0.629-0.486-0.272-0.644c1.016-0.486,1.96-1.087,2.775-1.86C268.85,375.9,269.408,375.041,270.095,374.226z"/>
		<path style="fill:#1D1D1B;" d="M269.68,350.863c0.386,4.178-4.435,6.51-7.711,4.306c-0.401-0.272-0.057-0.873,0.372-0.658
			c2.919,1.474,5.665-0.615,5.809-3.648C268.192,349.862,269.579,349.89,269.68,350.863z"/>
		<path style="fill:#1D1D1B;" d="M268.249,372.38c0.243-0.286,0.758,0.1,0.529,0.415c-0.715,0.973-1.76,1.774-2.79,2.418
			c-0.272,0.157-0.515-0.258-0.243-0.444C266.747,374.097,267.462,373.282,268.249,372.38z"/>
		<path style="fill:#1D1D1B;" d="M266.704,353.252c0.358,0.572-0.544,1.087-0.887,0.515c-0.787-1.259-1.502-2.547-2.203-3.849
			c-0.029,0-0.043,0.029-0.072,0.029c-1.216,0.029-2.404-0.272-3.591-0.515c-0.544-0.115-0.844-0.858-0.529-1.331
			c0.973-1.459,2.747-2.232,4.449-2.361c0.515-0.043,0.93,0.458,0.93,0.93c0.014,0.758,0.029,1.517,0.043,2.275
			c0.014,0.4-0.186,0.644-0.444,0.772C265.187,350.877,265.974,352.036,266.704,353.252z"/>
		<path style="fill:#1D1D1B;" d="M249.793,348.245c0,0.615-0.916,0.901-1.202,0.315c-0.529-1.03-1.702-2.117-2.933-1.374
			c-1.202,0.715-1.016,2.504-0.172,3.391c0.358,0.358-0.086,0.887-0.515,0.672c-1.974-1.001-1.96-4.12-0.143-5.279
			C246.603,344.811,249.765,345.927,249.793,348.245z"/>
		<path style="fill:#936037;" d="M244.085,339.361c19.428,0.758,16.367,42.992-5.88,31.217
			C222.539,362.294,230.622,343.967,244.085,339.361z M248.592,348.56c0.286,0.587,1.202,0.3,1.202-0.315
			c-0.029-2.318-3.19-3.434-4.965-2.275c-1.817,1.159-1.831,4.278,0.143,5.279c0.429,0.215,0.873-0.315,0.515-0.672
			c-0.844-0.887-1.03-2.675,0.172-3.391C246.889,346.442,248.062,347.53,248.592,348.56z"/>
		<path style="fill:#1D1D1B;" d="M244.085,338.087c17.955,0.629,20.473,37.341,0.114,35.967c-22.161-1.502-19.5-31.303-0.644-35.037
			C243.355,338.631,243.527,338.073,244.085,338.087z M238.205,370.578c22.247,11.774,25.309-30.459,5.88-31.217
			C230.622,343.967,222.539,362.294,238.205,370.578z"/>
		<path style="fill:#1D1D1B;" d="M242.783,326.112c0.243,0.215-0.014,0.673-0.315,0.558c-1.388-0.544-2.661-1.259-3.949-1.96
			c-0.644-0.343-1.588-1.059-2.275-1.245c-1.03-0.3-0.801-0.472-1.145,0.83c-0.916,3.448-0.544,7.182,2.804,9.099
			c0.615,0.358,0.2,1.331-0.472,1.13c-4.592-1.359-5.093-6.739-4.077-10.701c0.358-1.431,0.93-3.119,2.704-2.504
			c1.102,0.401,2.232,1.474,3.19,2.132C240.465,324.296,241.681,325.111,242.783,326.112z"/>
		<path style="fill:#1D1D1B;" d="M240.194,388.261c0.057-0.043,0.129,0.029,0.086,0.086c-0.129,0.129-0.243,0.258-0.372,0.386
			c-0.072,0.072-0.186-0.043-0.114-0.1C239.936,388.504,240.065,388.39,240.194,388.261z"/>
		<path style="fill:#1D1D1B;" d="M237.375,374.026c0.301,0.258-0.014,0.744-0.372,0.629c-0.93-0.272-1.788-0.944-2.561-1.531
			c-0.715-0.529-1.517-1.145-2.089-1.846c-0.243-0.3-0.472-0.801-0.057-1.073c0.243-0.172,0.515-0.086,0.673,0.143
			c0.072,0.114-0.115,0.258-0.2,0.143c0.229,0.272,0.258,0.458,0.544,0.687c0.257,0.229,0.529,0.429,0.801,0.644
			c0.329,0.258,0.687,0.501,1.03,0.744C235.873,373.067,236.703,373.453,237.375,374.026z"/>
		<path style="fill:#1D1D1B;" d="M235.558,375.528c0.472,0.215,0.129,0.987-0.358,0.83c-1.531-0.501-2.961-1.474-4.135-2.561
			c-0.358-0.329,0.172-0.815,0.529-0.529C232.826,374.24,234.142,374.884,235.558,375.528z"/>
		<path style="fill:#1D1D1B;" d="M221.237,327.042c0.358,1.745-0.286,3.605-1.359,4.979c-0.215,0.272-0.672-0.086-0.486-0.372
			c0.944-1.445,1.016-2.818,0.816-4.464C220.135,326.599,221.123,326.47,221.237,327.042z"/>
		<path style="fill:#1D1D1B;" d="M218.218,327.557c0.129,2.117-0.601,4.349-1.445,6.252c-0.172,0.372-0.787,0.1-0.644-0.272
			c0.701-2.017,0.873-3.992,1.159-6.109C217.36,326.871,218.175,327.071,218.218,327.557z"/>
		<path style="fill:#936037;" d="M209.72,313.666c10.773,16.481-8.827,31.289-13.892,45.796
			c-3.634,10.387-0.458,21.861,8.269,28.542c-2.847-0.458-5.68-0.944-8.527-1.416c-0.029,0-0.043,0-0.057,0
			c-0.057-0.486-0.129-0.973-0.2-1.459c-0.157-1.016-1.674-0.572-1.545,0.429c0.286,2.089,0.672,4.578-0.343,6.524
			c-1.259,2.418-4.449,3.033-5.894,0.429c-1.545-2.79-0.973-7.654-0.401-10.63c0.1-0.501-0.644-0.901-0.887-0.372
			c-0.587,1.316-1.073,3.176-1.259,5.15c-14.636-5.394-20.959-20.258-21.074-35.008c-0.115-13.377,5.494-24.436,17.197-31.217
			c8.627-5.007,18.398-6.982,28.513-7.225C209.606,313.351,209.62,313.508,209.72,313.666z M181.135,374.641
			c0.429,0.3,0.844-0.486,0.301-0.701c-1.374-0.558-2.361-1.917-2.775-3.291c-0.1-0.315-0.587-0.186-0.501,0.129
			C178.632,372.48,179.705,373.668,181.135,374.641z M178.989,375.528c0.429,0.243,0.83-0.444,0.386-0.672
			c-2.375-1.273-3.977-3.176-5.05-5.622c-0.072-0.157-0.315-0.043-0.272,0.114C174.74,371.966,176.629,374.212,178.989,375.528z"/>
		<path style="fill:#1D1D1B;" d="M181.436,373.94c0.544,0.215,0.129,1.001-0.301,0.701c-1.431-0.973-2.504-2.16-2.976-3.863
			c-0.086-0.315,0.401-0.444,0.501-0.129C179.075,372.023,180.062,373.382,181.436,373.94z"/>
		<path style="fill:#1D1D1B;" d="M179.376,374.855c0.444,0.229,0.043,0.916-0.386,0.672c-2.361-1.316-4.249-3.562-4.936-6.181
			c-0.043-0.157,0.2-0.272,0.272-0.114C175.398,371.679,177.001,373.582,179.376,374.855z"/>
		<path style="fill:#936037;" d="M172.208,324.61c-0.243,0.229-0.486,0.458-0.73,0.687c-5.794,5.88-8.927,13.806-9.686,22.104
			C147.057,340.648,158.96,317.042,172.208,324.61z M167.658,326.856c0.515-0.057,0.544-0.873,0-0.844
			c-1.245,0.086-2.604,0.515-3.62,1.23c-0.243,0.157-0.1,0.601,0.2,0.486C165.384,327.286,166.428,327.014,167.658,326.856z
			 M165.226,325.34c0.415,0.086,0.672-0.472,0.286-0.701c-1.216-0.772-3.119,0.329-3.119,1.76c0,0.186,0.272,0.272,0.358,0.1
			C163.266,325.454,164.11,325.111,165.226,325.34z"/>
		<path style="fill:#1D1D1B;" d="M167.658,326.012c0.544-0.029,0.515,0.787,0,0.844c-1.23,0.157-2.275,0.429-3.419,0.873
			c-0.3,0.114-0.443-0.329-0.2-0.486C165.055,326.527,166.414,326.098,167.658,326.012z"/>
		<path style="fill:#1D1D1B;" d="M165.512,324.639c0.386,0.229,0.129,0.787-0.286,0.701c-1.116-0.229-1.96,0.114-2.475,1.159
			c-0.086,0.172-0.358,0.086-0.358-0.1C162.394,324.968,164.296,323.866,165.512,324.639z"/>
		<path style="opacity:0.31;fill:#936037;" d="M257.464,321.103c-14.259-5.504-29.239-8.572-44.516-8.995
			c-0.669-1.012-2.164-0.891-2.916-0.064c-12.413-0.078-24.941,1.634-34.138,10.855c-0.602,0.603-1.171,1.233-1.724,1.878
			c-2.455-2.822-6.676-3.428-10.142-2.369c-4.515,1.379-6.749,5.352-8.667,9.316c-0.25,0.517,0.42,1.149,0.849,0.655
			c3.54-4.072,10.324-9.476,15.029-4.078c0.056,0.064,0.115,0.108,0.172,0.164c-11.64,17.838-7.839,46.163,11.232,57.458
			c1.487,0.881,3.541-0.947,2.477-2.477c-6.566-9.451-13.603-17.724-14.559-29.762c-0.91-11.456,3.975-23.614,13.63-30.197
			c7.465-5.09,16.942-6.542,26.113-6.627c1.467,8.609,0.157,17.124-4.152,24.96c-3.376,6.138-8.226,11.479-10.567,18.174
			c-3.594,10.276-0.181,22.26,9.031,28.296c0.923,0.605,1.851-0.719,1.143-1.481c-4.951-5.327-8.393-11.815-8.008-19.276
			c0.416-8.052,5.663-14.389,9.785-20.912c5.8-9.179,8.097-19.242,6.508-29.722c1.886,0.052,3.748,0.144,5.558,0.267
			c12.623,0.859,24.858,3.799,36.658,8.303C258.987,326.509,260.154,322.142,257.464,321.103z"/>
		<path style="opacity:0.31;fill:#936037;" d="M241.209,368.369c-6.013-1.696-8.053-6.38-8.252-12.24
			c-0.182-5.376,1.212-11.351,7.293-12.593c0.995-0.203,0.684-1.613-0.227-1.68c-15.409-1.122-14.224,29.284,0.741,29.797
			C242.671,371.72,243.007,368.876,241.209,368.369z"/>
		<path style="opacity:0.31;fill:#936037;" d="M283.057,345.467c-0.347-1.258-1.759-1.427-2.669-0.705
			c-0.492,0.391-2.12,0.239-2.751,0.24c-0.718,0.001-1.411-0.047-2.104-0.133c-0.146-0.276-0.398-0.493-0.786-0.563
			c-3.348-0.605-6.267-1.612-8.861-3.914c-2.496-2.215-3.37-5.039-5.118-7.722c-0.438-0.673-1.35-0.357-1.429,0.387
			c-0.777,7.27,8.686,13.663,15.061,13.818c0.43,0.01,0.75-0.201,0.971-0.495c0.737,0.267,1.487,0.506,2.252,0.641
			c1.088,0.192,2.468-0.003,3.47,0.41C282.261,347.913,283.351,346.53,283.057,345.467z"/>
		<path style="opacity:0.31;fill:#936037;" d="M271.714,376.693c-1.222,1.602-2.039,3.589-2.965,5.373
			c-0.365,0.703,0.565,1.527,1.146,0.884c1.414-1.566,3.038-3.093,4.164-4.885C275.016,376.543,272.742,375.345,271.714,376.693z"/>
	</g>
</g>
</svg>
